<?xml version="1.0" encoding="UTF-8" standalone="no"?>
<!-- Created with Inkscape (http://www.inkscape.org/) -->

<svg
   version="1.1"
   id="svg364092"
   width="384"
   height="384"
   viewBox="0 0 384 384"
   sodipodi:docname="discacross.pdf"
   xmlns:inkscape="http://www.inkscape.org/namespaces/inkscape"
   xmlns:sodipodi="http://sodipodi.sourceforge.net/DTD/sodipodi-0.dtd"
   xmlns="http://www.w3.org/2000/svg"
   xmlns:svg="http://www.w3.org/2000/svg">
  <defs
     id="defs364096">
    <clipPath
       clipPathUnits="userSpaceOnUse"
       id="clipPath364156">
      <path
         d="M 28.47,31.91 H 282.52 V 282.52 H 28.47 Z"
         id="path364154" />
    </clipPath>
  </defs>
  <sodipodi:namedview
     id="namedview364094"
     pagecolor="#ffffff"
     bordercolor="#000000"
     borderopacity="0.25"
     inkscape:showpageshadow="2"
     inkscape:pageopacity="0.0"
     inkscape:pagecheckerboard="0"
     inkscape:deskcolor="#d1d1d1"
     showgrid="false">
    <inkscape:page
       x="0"
       y="0"
       id="page364098"
       width="384"
       height="384"
       inkscape:export-filename="discacross.png"
       inkscape:export-xdpi="300"
       inkscape:export-ydpi="300" />
  </sodipodi:namedview>
  <g
     id="g364100"
     inkscape:groupmode="layer"
     inkscape:label="Page 1"
     transform="matrix(1.3333333,0,0,-1.3333333,0,384)">
    <g
       id="g364102">
      <path
         d="M 0,0 H 288 V 288 H 0 Z"
         style="fill:#ffffff;fill-opacity:1;fill-rule:nonzero;stroke:none"
         id="path364104" />
    </g>
    <g
       id="g364106" />
    <g
       id="g364108" />
    <g
       id="g364110" />
    <g
       id="g364112" />
    <g
       id="g364114" />
    <g
       id="g364116" />
    <g
       id="g364118" />
    <g
       id="g364120" />
    <g
       id="g364122" />
    <g
       id="g364124" />
    <g
       id="g364126" />
    <g
       id="g364128" />
    <g
       id="g364130" />
    <g
       id="g364132" />
    <g
       id="g364134" />
    <g
       id="g364136" />
    <g
       id="g364138" />
    <g
       id="g364140" />
    <g
       id="g364142" />
    <g
       id="g364144">
      <path
         d="M 0,0 H 288 V 288 H 0 Z"
         style="fill:#ffffff;fill-opacity:1;fill-rule:nonzero;stroke:#ffffff;stroke-width:1.07;stroke-linecap:round;stroke-linejoin:round;stroke-miterlimit:10;stroke-dasharray:none;stroke-opacity:1"
         id="path364146" />
    </g>
    <g
       id="g364148" />
    <g
       id="g364150">
      <g
         id="g364152"
         clip-path="url(#clipPath364156)">
        <path
           d="M 28.47,31.91 H 282.52 V 282.52 H 28.47 Z"
           style="fill:#ffffff;fill-opacity:1;fill-rule:nonzero;stroke:none"
           id="path364158" />
        <path
           d="m 40.02,43.74 0.45,0.06 0.45,0.07 0.46,0.08 0.45,0.09 0.45,0.09 0.45,0.11 0.45,0.11 0.46,0.13 0.45,0.14 0.45,0.15 0.45,0.16 0.45,0.18 0.46,0.2 0.45,0.2 0.45,0.23 0.45,0.23 0.45,0.26 0.46,0.27 0.45,0.29 0.45,0.31 0.45,0.32 0.45,0.35 0.46,0.36 0.45,0.38 0.45,0.4 0.45,0.42 0.45,0.44 0.46,0.46 0.45,0.48 0.45,0.49 0.45,0.52 0.45,0.54 0.46,0.56 0.45,0.57 0.45,0.59 0.45,0.62 0.45,0.64 0.45,0.65 0.46,0.67 0.45,0.69 0.45,0.71 0.45,0.74 0.45,0.74 0.46,0.77 0.45,0.79 0.45,0.8 0.45,0.83 0.45,0.84 0.46,0.86 0.45,0.88 0.45,0.89 0.45,0.92 0.45,0.93 0.46,0.95 0.45,0.97 0.45,0.99 0.45,1.01 0.45,1.03 0.46,1.05 0.45,1.06 0.45,1.09 0.45,1.11 0.45,1.13 0.46,1.15 0.45,1.17 0.45,1.2 0.45,1.22 0.45,1.24 0.46,1.27 0.45,1.29 0.45,1.31 0.45,1.33 0.45,1.36 0.46,1.38 0.45,1.4 0.45,1.42 0.45,1.44 0.45,1.46 0.46,1.48 0.45,1.48 0.45,1.5 0.45,1.51 0.45,1.51 0.46,1.52 0.45,1.52 0.45,1.52 0.45,1.52 0.45,1.5 0.45,1.51 0.46,1.49 0.45,1.48 0.45,1.46 0.45,1.45 0.45,1.43 0.46,1.42 0.45,1.4 0.45,1.39 0.45,1.37 0.45,1.35 0.46,1.35 0.45,1.33 0.45,1.33 0.45,1.33 0.45,1.33 0.46,1.34 0.45,1.35 0.45,1.36 0.45,1.39 0.45,1.41 0.46,1.44 0.45,1.49 0.45,1.53 0.45,1.59 0.45,1.63 0.46,1.7 0.45,1.77 0.45,1.84 0.45,1.92 0.45,1.99 0.46,2.09 0.45,2.17 0.45,2.26 0.45,2.35 0.45,2.43 0.46,2.54 0.45,2.63 0.45,2.72 0.45,2.79 0.45,2.87 0.46,2.97 0.45,3.03 0.45,3.09 0.45,3.14 0.45,3.21 0.46,3.24 0.45,3.28 0.45,3.29 0.45,3.3 0.45,3.31 0.46,3.29 0.45,3.26 0.45,3.24 0.45,3.18 0.45,3.12 0.45,3.04 0.46,2.97 0.45,2.88 0.45,2.77 0.45,2.63 0.45,2.52 0.46,2.4 0.45,2.26 0.45,2.09 0.45,1.93 0.45,1.79 0.46,1.63 0.45,1.47 0.45,1.27 0.45,1.12 0.45,0.96 0.46,0.8 0.45,0.63 0.45,0.46 0.45,0.3 0.45,0.17 0.46,0.04 0.45,-0.13 0.45,-0.26 0.45,-0.38 0.45,-0.49 0.46,-0.59 0.45,-0.73 0.45,-0.81 0.45,-0.89 0.45,-0.97 0.46,-1.06 0.45,-1.13 0.45,-1.19 0.45,-1.24 0.45,-1.3 0.46,-1.35 0.45,-1.39 0.45,-1.44 0.45,-1.47 0.45,-1.5 0.46,-1.54 0.45,-1.57 0.45,-1.59 0.45,-1.62 0.45,-1.65 0.46,-1.67 0.45,-1.69 0.45,-1.71 0.45,-1.72 0.45,-1.75 0.45,-1.77 0.46,-1.78 0.45,-1.79 0.45,-1.81 0.45,-1.82 0.45,-1.84 0.46,-1.84 0.45,-1.85 0.45,-1.85 0.45,-1.86 0.45,-1.86 0.46,-1.87 0.45,-1.86 0.45,-1.86 0.45,-1.85 0.45,-1.84 0.46,-1.84 0.45,-1.82 0.45,-1.81 0.45,-1.79 0.45,-1.78 0.46,-1.76 0.45,-1.74 0.45,-1.72 0.45,-1.69 0.45,-1.67 0.46,-1.65 0.45,-1.62 0.45,-1.59 0.45,-1.56 0.45,-1.55 0.46,-1.52 0.45,-1.49 0.45,-1.46 0.45,-1.45 0.45,-1.43 0.46,-1.41 0.45,-1.38 0.45,-1.38 0.45,-1.36 0.45,-1.36 0.46,-1.35 0.45,-1.34 0.45,-1.35 0.45,-1.34 0.45,-1.35 0.46,-1.36 0.45,-1.37 0.45,-1.38 0.45,-1.4 0.45,-1.41 0.45,-1.44 0.46,-1.45 0.45,-1.47 0.45,-1.49 0.45,-1.51 0.45,-1.53 0.46,-1.54 0.45,-1.57 0.45,-1.57 0.45,-1.59 0.45,-1.6 0.46,-1.6 0.45,-1.6 0.45,-1.61 0.45,-1.59 0.45,-1.59 0.46,-1.57 0.45,-1.56 0.45,-1.53 0.45,-1.51 0.45,-1.47 0.46,-1.45 0.45,-1.41 0.45,-1.38 0.45,-1.32 0.45,-1.28 0.46,-1.24 0.45,-1.2 0.45,-1.14 0.45,-1.09 0.45,-1.05 0.46,-1 0.45,-0.96 0.45,-0.89 0.45,-0.85 0.45,-0.81 0.46,-0.77 0.45,-0.72 0.45,-0.68 0.45,-0.64 0.45,-0.61 0.46,-0.57 0.45,-0.54 0.45,-0.51 0.45,-0.48 0.45,-0.45 0.46,-0.43 0.45,-0.41 0.45,-0.38 0.45,-0.37 0.45,-0.35 0.46,-0.33 0.45,-0.32 0.45,-0.3 0.45,-0.3 0.45,-0.29 0.45,-0.28 0.46,-0.27 0.45,-0.26 0.45,-0.26 0.45,-0.26 0.45,-0.26 0.46,-0.26 0.45,-0.25 0.45,-0.26 0.45,-0.26 0.45,-0.26 0.46,-0.27 0.45,-0.27 0.45,-0.28 0.45,-0.28 0.45,-0.28 0.46,-0.29 0.45,-0.3 0.45,-0.3 0.45,-0.31 0.45,-0.31 0.46,-0.31 0.45,-0.32 0.45,-0.33 0.45,-0.32 0.45,-0.33 0.46,-0.33 0.45,-0.33 0.45,-0.33 0.45,-0.33 0.45,-0.32 0.46,-0.33 0.45,-0.33 0.45,-0.32 0.45,-0.32 0.45,-0.32 0.46,-0.32 0.45,-0.32 0.45,-0.32 0.45,-0.32 0.45,-0.32 0.46,-0.32 0.45,-0.33 0.45,-0.33 0.45,-0.34 0.45,-0.34 0.46,-0.36 0.45,-0.37 0.45,-0.38 0.45,-0.39 0.45,-0.41 0.45,-0.42 0.46,-0.45 0.45,-0.46 0.45,-0.48 0.45,-0.5 0.45,-0.52 0.46,-0.55 0.45,-0.56 0.45,-0.58 0.45,-0.6 0.45,-0.62 0.46,-0.63 0.45,-0.66 0.45,-0.66 0.45,-0.68 0.45,-0.69 0.46,-0.7 0.45,-0.71 0.45,-0.71 0.45,-0.72 0.45,-0.72 0.46,-0.72 0.45,-0.72 0.45,-0.71 0.45,-0.71 0.45,-0.69 0.46,-0.69 0.45,-0.68 0.45,-0.67 0.45,-0.66 0.45,-0.64 0.46,-0.62 0.45,-0.61 0.45,-0.6 0.45,-0.58 0.45,-0.55 0.46,-0.55 0.45,-0.52 0.45,-0.51 0.45,-0.48 0.45,-0.47 0.46,-0.46 0.45,-0.43 0.45,-0.42 0.45,-0.4 0.45,-0.38 0.46,-0.36 0.45,-0.35 0.45,-0.33 0.45,-0.31 0.45,-0.3 0.45,-0.29 0.46,-0.26 0.45,-0.25 0.45,-0.24 0.45,-0.23 0.45,-0.21 0.46,-0.19 0.45,-0.19 0.45,-0.17 0.45,-0.16 0.45,-0.14 0.46,-0.14 0.45,-0.12 0.45,-0.12 0.45,-0.11 0.45,-0.09 0.46,-0.09 0.45,-0.08 0.45,-0.08 0.45,-0.06 0.45,-0.06 0.46,-0.05 0.45,-0.05 0.45,-0.05 0.45,-0.03 0.45,-0.04 0.46,-0.03 0.45,-0.02 0.45,-0.03 0.45,-0.02 0.45,-0.01 0.46,-0.02 0.45,-0.01 0.45,-0.01 0.45,-0.01 0.45,-0.01 0.46,-0.01 0.45,-0.01 h 0.45 l 0.45,-0.01 h 0.45 0.46 l 0.45,-0.01 h 0.45 0.45 0.45 0.46 0.45 0.45 l 0.45,-0.01 h 0.45 0.46 0.45 0.45 0.45 0.45 0.45 0.46 0.45 0.45 0.45 0.45 0.46 0.45 0.45 0.45 0.45 0.46 0.45 0.45 0.45 0.45 0.46 0.45 0.45 0.45 0.45 0.46 0.45 0.45 0.45 0.45 0.46 0.45 0.45 0.45 0.45 0.46 0.45 0.45 0.45 0.45 0.46 0.45 0.45 0.45 0.45 0.46 0.45 0.45 0.45 0.45 0.46 0.45 0.45 0.45 0.45"
           style="fill:none;stroke:#f8766d;stroke-width:1.07;stroke-linecap:butt;stroke-linejoin:round;stroke-miterlimit:10;stroke-dasharray:none;stroke-opacity:1"
           id="path364160" />
        <path
           d="m 40.02,43.3 h 0.45 0.45 0.46 0.45 0.45 0.45 0.45 0.46 0.45 0.45 0.45 0.45 0.46 0.45 0.45 0.45 0.45 0.46 0.45 0.45 0.45 0.45 0.46 0.45 0.45 0.45 0.45 0.46 0.45 0.45 0.45 0.45 0.46 0.45 0.45 0.45 0.45 0.45 0.46 0.45 0.45 0.45 0.45 0.46 0.45 0.45 0.45 0.45 0.46 0.45 0.45 0.45 0.45 0.46 0.45 0.45 0.45 0.45 0.46 0.45 0.45 0.45 0.45 0.46 0.45 0.45 0.45 0.45 0.46 0.45 0.45 0.45 0.45 0.46 0.45 0.45 l 0.45,0.01 h 0.45 0.46 0.45 0.45 l 0.45,0.01 h 0.45 l 0.46,0.01 0.45,0.01 0.45,0.01 0.45,0.01 0.45,0.01 0.45,0.02 0.46,0.02 0.45,0.03 0.45,0.03 0.45,0.04 0.45,0.04 0.46,0.05 0.45,0.05 0.45,0.06 0.45,0.07 0.45,0.08 0.46,0.08 0.45,0.09 0.45,0.1 0.45,0.11 0.45,0.12 0.46,0.13 0.45,0.13 0.45,0.15 0.45,0.15 0.45,0.16 0.46,0.17 0.45,0.18 0.45,0.19 0.45,0.19 0.45,0.21 0.46,0.21 0.45,0.23 0.45,0.23 0.45,0.24 0.45,0.26 0.46,0.26 0.45,0.27 0.45,0.29 0.45,0.3 0.45,0.31 0.46,0.32 0.45,0.33 0.45,0.35 0.45,0.36 0.45,0.38 0.46,0.39 0.45,0.42 0.45,0.44 0.45,0.46 0.45,0.49 0.46,0.52 0.45,0.56 0.45,0.6 0.45,0.64 0.45,0.68 0.46,0.73 0.45,0.78 0.45,0.84 0.45,0.88 0.45,0.94 0.45,0.99 0.46,1.03 0.45,1.08 0.45,1.11 0.45,1.15 0.45,1.18 0.46,1.21 0.45,1.22 0.45,1.24 0.45,1.24 0.45,1.25 0.46,1.25 0.45,1.25 0.45,1.24 0.45,1.25 0.45,1.24 0.46,1.24 0.45,1.26 0.45,1.26 0.45,1.27 0.45,1.3 0.46,1.32 0.45,1.36 0.45,1.39 0.45,1.44 0.45,1.48 0.46,1.53 0.45,1.58 0.45,1.64 0.45,1.7 0.45,1.76 0.46,1.81 0.45,1.87 0.45,1.91 0.45,1.96 0.45,2 0.46,2.04 0.45,2.07 0.45,2.11 0.45,2.12 0.45,2.14 0.46,2.15 0.45,2.16 0.45,2.16 0.45,2.16 0.45,2.15 0.46,2.16 0.45,2.14 0.45,2.15 0.45,2.15 0.45,2.14 0.45,2.16 0.46,2.17 0.45,2.18 0.45,2.21 0.45,2.23 0.45,2.27 0.46,2.29 0.45,2.33 0.45,2.37 0.45,2.4 0.45,2.43 0.46,2.44 0.45,2.46 0.45,2.47 0.45,2.46 0.45,2.45 0.46,2.41 0.45,2.38 0.45,2.33 0.45,2.28 0.45,2.21 0.46,2.15 0.45,2.07 0.45,1.99 0.45,1.91 0.45,1.85 0.46,1.77 0.45,1.72 0.45,1.66 0.45,1.62 0.45,1.59 0.46,1.57 0.45,1.56 0.45,1.58 0.45,1.59 0.45,1.63 0.46,1.67 0.45,1.72 0.45,1.78 0.45,1.85 0.45,1.91 0.46,1.97 0.45,2.02 0.45,2.07 0.45,2.11 0.45,2.13 0.46,2.15 0.45,2.14 0.45,2.13 0.45,2.09 0.45,2.04 0.45,1.98 0.46,1.92 0.45,1.82 0.45,1.73 0.45,1.63 0.45,1.55 0.46,1.45 0.45,1.36 0.45,1.27 0.45,1.17 0.45,1.09 0.46,1.02 0.45,0.94 0.45,0.88 0.45,0.81 0.45,0.75 0.46,0.68 0.45,0.6 0.45,0.52 0.45,0.44 0.45,0.35 0.46,0.26 0.45,0.15 0.45,0.05 0.45,-0.08 0.45,-0.2 0.46,-0.33 0.45,-0.44 0.45,-0.56 0.45,-0.68 0.45,-0.78 0.46,-0.88 0.45,-0.97 0.45,-1.05 0.45,-1.11 0.45,-1.16 0.46,-1.19 0.45,-1.22 0.45,-1.23 0.45,-1.23 0.45,-1.23 0.46,-1.22 0.45,-1.2 0.45,-1.19 0.45,-1.17 0.45,-1.16 0.46,-1.14 0.45,-1.13 0.45,-1.14 0.45,-1.13 0.45,-1.14 0.46,-1.16 0.45,-1.18 0.45,-1.21 0.45,-1.25 0.45,-1.3 0.45,-1.34 0.46,-1.39 0.45,-1.45 0.45,-1.51 0.45,-1.57 0.45,-1.64 0.46,-1.71 0.45,-1.78 0.45,-1.85 0.45,-1.91 0.45,-1.98 0.46,-2.06 0.45,-2.12 0.45,-2.2 0.45,-2.28 0.45,-2.34 0.46,-2.42 0.45,-2.49 0.45,-2.56 0.45,-2.61 0.45,-2.68 0.46,-2.75 0.45,-2.78 0.45,-2.83 0.45,-2.85 0.45,-2.87 0.46,-2.87 0.45,-2.87 0.45,-2.86 0.45,-2.84 0.45,-2.8 0.46,-2.76 0.45,-2.72 0.45,-2.67 0.45,-2.62 0.45,-2.57 0.46,-2.52 0.45,-2.46 0.45,-2.42 0.45,-2.37 0.45,-2.33 0.46,-2.29 0.45,-2.25 0.45,-2.21 0.45,-2.17 0.45,-2.13 0.46,-2.1 0.45,-2.05 0.45,-2.02 0.45,-1.98 0.45,-1.95 0.45,-1.9 0.46,-1.86 0.45,-1.82 0.45,-1.79 0.45,-1.76 0.45,-1.73 0.46,-1.7 0.45,-1.68 0.45,-1.65 0.45,-1.63 0.45,-1.62 0.46,-1.6 0.45,-1.59 0.45,-1.58 0.45,-1.57 0.45,-1.56 0.46,-1.55 0.45,-1.53 0.45,-1.53 0.45,-1.5 0.45,-1.48 0.46,-1.46 0.45,-1.42 0.45,-1.39 0.45,-1.34 0.45,-1.3 0.46,-1.25 0.45,-1.19 0.45,-1.14 0.45,-1.08 0.45,-1.01 0.46,-0.95 0.45,-0.89 0.45,-0.84 0.45,-0.77 0.45,-0.73 0.46,-0.69 0.45,-0.64 0.45,-0.59 0.45,-0.57 0.45,-0.55 0.46,-0.53 0.45,-0.51 0.45,-0.49 0.45,-0.49 0.45,-0.48 0.46,-0.48 0.45,-0.47 0.45,-0.46 0.45,-0.46 0.45,-0.46 0.45,-0.44 0.46,-0.43 0.45,-0.42 0.45,-0.41 0.45,-0.39 0.45,-0.38 0.46,-0.36 0.45,-0.34 0.45,-0.32 0.45,-0.31 0.45,-0.29 0.46,-0.27 0.45,-0.26 0.45,-0.25 0.45,-0.23 0.45,-0.22 0.46,-0.2 0.45,-0.19 0.45,-0.18 0.45,-0.16 0.45,-0.15 0.46,-0.13 0.45,-0.11 0.45,-0.1 0.45,-0.07 0.45,-0.05 0.46,-0.03 h 0.45 l 0.45,0.02 0.45,0.03 0.45,0.07 0.46,0.08 0.45,0.11 0.45,0.13 0.45,0.14 0.45,0.16 0.46,0.16 0.45,0.18 0.45,0.19 0.45,0.19 0.45,0.18 0.46,0.18 0.45,0.18 0.45,0.16 0.45,0.15 0.45,0.13 0.46,0.12 0.45,0.09 0.45,0.08 0.45,0.05 0.45,0.04 0.46,0.03 0.45,0.01 h 0.45 l 0.45,-0.01 h 0.45 l 0.45,-0.01 0.46,0.01 0.45,0.01 0.45,0.02 0.45,0.04 0.45,0.06 0.46,0.09 0.45,0.1 0.45,0.13 0.45,0.15 0.45,0.17 0.46,0.19 0.45,0.21 0.45,0.23 0.45,0.24 0.45,0.24 0.46,0.25 0.45,0.26 0.45,0.24 0.45,0.24 0.45,0.23 0.46,0.19 0.45,0.18 0.45,0.14 0.45,0.1 0.45,0.05 0.46,0.01 0.45,-0.04 0.45,-0.11 0.45,-0.17 0.45,-0.24 0.46,-0.29 0.45,-0.36 0.45,-0.43 0.45,-0.48 0.45,-0.55 0.46,-0.61 0.45,-0.66 0.45,-0.7 0.45,-0.73 0.45,-0.77 0.46,-0.79 0.45,-0.81 0.45,-0.82 0.45,-0.81 0.45,-0.81 0.46,-0.8 0.45,-0.77 0.45,-0.75 0.45,-0.72 0.45,-0.68"
           style="fill:none;stroke:#7cae00;stroke-width:1.07;stroke-linecap:butt;stroke-linejoin:round;stroke-miterlimit:10;stroke-dasharray:none;stroke-opacity:1"
           id="path364162" />
        <path
           d="m 40.02,49.45 0.45,0.5 0.45,0.53 0.46,0.56 0.45,0.59 0.45,0.62 0.45,0.64 0.45,0.67 0.46,0.7 0.45,0.73 0.45,0.76 0.45,0.77 0.45,0.81 0.46,0.83 0.45,0.86 0.45,0.87 0.45,0.9 0.45,0.92 0.46,0.94 0.45,0.96 0.45,0.98 0.45,1 0.45,1.02 0.46,1.04 0.45,1.05 0.45,1.08 0.45,1.09 0.45,1.11 0.46,1.14 0.45,1.16 0.45,1.19 0.45,1.21 0.45,1.24 0.46,1.26 0.45,1.3 0.45,1.34 0.45,1.36 0.45,1.39 0.45,1.44 0.46,1.47 0.45,1.5 0.45,1.54 0.45,1.58 0.45,1.61 0.46,1.65 0.45,1.68 0.45,1.7 0.45,1.74 0.45,1.75 0.46,1.79 0.45,1.8 0.45,1.81 0.45,1.83 0.45,1.83 0.46,1.84 0.45,1.84 0.45,1.83 0.45,1.83 0.45,1.83 0.46,1.81 0.45,1.79 0.45,1.78 0.45,1.77 0.45,1.75 0.46,1.73 0.45,1.71 0.45,1.7 0.45,1.68 0.45,1.68 0.46,1.66 0.45,1.65 0.45,1.65 0.45,1.64 0.45,1.64 0.46,1.65 0.45,1.64 0.45,1.65 0.45,1.66 0.45,1.66 0.46,1.67 0.45,1.68 0.45,1.69 0.45,1.69 0.45,1.7 0.46,1.69 0.45,1.7 0.45,1.69 0.45,1.69 0.45,1.67 0.45,1.66 0.46,1.64 0.45,1.61 0.45,1.59 0.45,1.55 0.45,1.52 0.46,1.49 0.45,1.43 0.45,1.4 0.45,1.35 0.45,1.31 0.46,1.27 0.45,1.21 0.45,1.18 0.45,1.13 0.45,1.1 0.46,1.07 0.45,1.03 0.45,1.01 0.45,0.99 0.45,0.99 0.46,0.98 0.45,0.97 0.45,0.99 0.45,1.01 0.45,1.02 0.46,1.05 0.45,1.08 0.45,1.13 0.45,1.17 0.45,1.21 0.46,1.25 0.45,1.31 0.45,1.37 0.45,1.41 0.45,1.46 0.46,1.5 0.45,1.54 0.45,1.58 0.45,1.6 0.45,1.62 0.46,1.62 0.45,1.63 0.45,1.62 0.45,1.59 0.45,1.56 0.46,1.52 0.45,1.46 0.45,1.39 0.45,1.3 0.45,1.21 0.46,1.13 0.45,1.02 0.45,0.89 0.45,0.76 0.45,0.64 0.45,0.51 0.46,0.39 0.45,0.25 0.45,0.09 0.45,-0.02 0.45,-0.14 0.46,-0.26 0.45,-0.38 0.45,-0.5 0.45,-0.6 0.45,-0.67 0.46,-0.76 0.45,-0.82 0.45,-0.89 0.45,-0.94 0.45,-0.98 0.46,-1 0.45,-1.02 0.45,-1.03 0.45,-1.04 0.45,-1.03 0.46,-1.02 0.45,-1.01 0.45,-0.99 0.45,-0.97 0.45,-0.95 0.46,-0.93 0.45,-0.91 0.45,-0.88 0.45,-0.88 0.45,-0.86 0.46,-0.85 0.45,-0.85 0.45,-0.85 0.45,-0.85 0.45,-0.87 0.46,-0.88 0.45,-0.89 0.45,-0.93 0.45,-0.95 0.45,-0.99 0.46,-1.02 0.45,-1.05 0.45,-1.09 0.45,-1.14 0.45,-1.17 0.46,-1.22 0.45,-1.25 0.45,-1.3 0.45,-1.33 0.45,-1.37 0.45,-1.4 0.46,-1.44 0.45,-1.45 0.45,-1.49 0.45,-1.52 0.45,-1.53 0.46,-1.54 0.45,-1.56 0.45,-1.58 0.45,-1.58 0.45,-1.59 0.46,-1.59 0.45,-1.59 0.45,-1.6 0.45,-1.59 0.45,-1.58 0.46,-1.58 0.45,-1.57 0.45,-1.57 0.45,-1.56 0.45,-1.54 0.46,-1.54 0.45,-1.52 0.45,-1.51 0.45,-1.5 0.45,-1.49 0.46,-1.48 0.45,-1.46 0.45,-1.46 0.45,-1.44 0.45,-1.44 0.46,-1.42 0.45,-1.42 0.45,-1.41 0.45,-1.41 0.45,-1.4 0.46,-1.39 0.45,-1.39 0.45,-1.4 0.45,-1.38 0.45,-1.39 0.46,-1.39 0.45,-1.39 0.45,-1.39 0.45,-1.39 0.45,-1.4 0.46,-1.39 0.45,-1.39 0.45,-1.4 0.45,-1.39 0.45,-1.4 0.45,-1.39 0.46,-1.38 0.45,-1.38 0.45,-1.38 0.45,-1.36 0.45,-1.36 0.46,-1.35 0.45,-1.33 0.45,-1.32 0.45,-1.31 0.45,-1.29 0.46,-1.27 0.45,-1.25 0.45,-1.24 0.45,-1.22 0.45,-1.19 0.46,-1.18 0.45,-1.16 0.45,-1.15 0.45,-1.12 0.45,-1.11 0.46,-1.08 0.45,-1.08 0.45,-1.06 0.45,-1.04 0.45,-1.03 0.46,-1.01 0.45,-1.01 0.45,-0.98 0.45,-0.98 0.45,-0.96 0.46,-0.95 0.45,-0.94 0.45,-0.92 0.45,-0.91 0.45,-0.9 0.46,-0.87 0.45,-0.86 0.45,-0.85 0.45,-0.83 0.45,-0.81 0.46,-0.79 0.45,-0.77 0.45,-0.75 0.45,-0.73 0.45,-0.72 0.46,-0.69 0.45,-0.68 0.45,-0.66 0.45,-0.64 0.45,-0.63 0.46,-0.61 0.45,-0.59 0.45,-0.59 0.45,-0.57 0.45,-0.56 0.45,-0.56 0.46,-0.54 0.45,-0.54 0.45,-0.53 0.45,-0.52 0.45,-0.51 0.46,-0.51 0.45,-0.5 0.45,-0.5 0.45,-0.49 0.45,-0.48 0.46,-0.47 0.45,-0.47 0.45,-0.45 0.45,-0.45 0.45,-0.44 0.46,-0.43 0.45,-0.42 0.45,-0.41 0.45,-0.4 0.45,-0.39 0.46,-0.38 0.45,-0.37 0.45,-0.37 0.45,-0.35 0.45,-0.35 0.46,-0.34 0.45,-0.34 0.45,-0.33 0.45,-0.33 0.45,-0.33 0.46,-0.32 0.45,-0.33 0.45,-0.32 0.45,-0.32 0.45,-0.33 0.46,-0.32 0.45,-0.33 0.45,-0.33 0.45,-0.32 0.45,-0.33 0.46,-0.34 0.45,-0.33 0.45,-0.33 0.45,-0.33 0.45,-0.34 0.46,-0.33 0.45,-0.33 0.45,-0.32 0.45,-0.33 0.45,-0.32 0.45,-0.31 0.46,-0.31 0.45,-0.31 0.45,-0.3 0.45,-0.29 0.45,-0.29 0.46,-0.28 0.45,-0.27 0.45,-0.26 0.45,-0.26 0.45,-0.25 0.46,-0.24 0.45,-0.23 0.45,-0.22 0.45,-0.22 0.45,-0.21 0.46,-0.2 0.45,-0.19 0.45,-0.19 0.45,-0.18 0.45,-0.17 0.46,-0.17 0.45,-0.15 0.45,-0.16 0.45,-0.14 0.45,-0.14 0.46,-0.13 0.45,-0.13 0.45,-0.12 0.45,-0.11 0.45,-0.11 0.46,-0.11 0.45,-0.1 0.45,-0.09 0.45,-0.09 0.45,-0.08 0.46,-0.08 0.45,-0.07 0.45,-0.07 0.45,-0.06 0.45,-0.06 0.46,-0.05 0.45,-0.05 0.45,-0.05 0.45,-0.04 0.45,-0.04 0.46,-0.04 0.45,-0.03 0.45,-0.03 0.45,-0.02 0.45,-0.03 0.45,-0.02 0.46,-0.02 0.45,-0.01 0.45,-0.02 0.45,-0.01 0.45,-0.01 0.46,-0.01 0.45,-0.01 0.45,-0.01 h 0.45 l 0.45,-0.01 h 0.46 l 0.45,-0.01 h 0.45 0.45 l 0.45,-0.01 h 0.46 0.45 0.45 0.45 0.45 0.46 l 0.45,-0.01 h 0.45 0.45 0.45 0.46 0.45 0.45 0.45 0.45 0.46 0.45 0.45 0.45 0.45 0.46 0.45 0.45 0.45 0.45 0.46 0.45 0.45 0.45 0.45 0.46 0.45 0.45 0.45 0.45 0.46 0.45 0.45 0.45 0.45 0.45 0.46 0.45 0.45 0.45 0.45 0.46 0.45 0.45 0.45 0.45 0.46 0.45 0.45 0.45 0.45 0.46 0.45 0.45 0.45 0.45 0.46 0.45 0.45 0.45 0.45 0.46 0.45 0.45 0.45 0.45 0.46 0.45 0.45 0.45 0.45 0.46 0.45 0.45 0.45 0.45 0.46 0.45 0.45 0.45 0.45 0.46 0.45 0.45 0.45 0.45"
           style="fill:none;stroke:#00bfc4;stroke-width:1.07;stroke-linecap:butt;stroke-linejoin:round;stroke-miterlimit:10;stroke-dasharray:none;stroke-opacity:1"
           id="path364164" />
        <path
           d="m 40.02,44.51 0.45,0.12 0.45,0.12 0.46,0.13 0.45,0.14 0.45,0.15 0.45,0.16 0.45,0.17 0.46,0.18 0.45,0.19 0.45,0.2 0.45,0.21 0.45,0.22 0.46,0.23 0.45,0.24 0.45,0.25 0.45,0.26 0.45,0.27 0.46,0.28 0.45,0.29 0.45,0.3 0.45,0.32 0.45,0.32 0.46,0.33 0.45,0.34 0.45,0.35 0.45,0.36 0.45,0.38 0.46,0.38 0.45,0.4 0.45,0.41 0.45,0.42 0.45,0.44 0.46,0.45 0.45,0.46 0.45,0.48 0.45,0.49 0.45,0.51 0.45,0.52 0.46,0.54 0.45,0.56 0.45,0.56 0.45,0.59 0.45,0.59 0.46,0.62 0.45,0.62 0.45,0.64 0.45,0.65 0.45,0.66 0.46,0.67 0.45,0.68 0.45,0.7 0.45,0.7 0.45,0.71 0.46,0.71 0.45,0.73 0.45,0.74 0.45,0.74 0.45,0.76 0.46,0.76 0.45,0.78 0.45,0.79 0.45,0.81 0.45,0.83 0.46,0.84 0.45,0.87 0.45,0.88 0.45,0.92 0.45,0.94 0.46,0.98 0.45,1 0.45,1.04 0.45,1.08 0.45,1.11 0.46,1.15 0.45,1.2 0.45,1.23 0.45,1.27 0.45,1.31 0.46,1.35 0.45,1.38 0.45,1.43 0.45,1.45 0.45,1.49 0.46,1.52 0.45,1.54 0.45,1.57 0.45,1.59 0.45,1.62 0.45,1.63 0.46,1.65 0.45,1.66 0.45,1.67 0.45,1.69 0.45,1.69 0.46,1.69 0.45,1.7 0.45,1.7 0.45,1.7 0.45,1.7 0.46,1.69 0.45,1.7 0.45,1.68 0.45,1.68 0.45,1.67 0.46,1.67 0.45,1.65 0.45,1.65 0.45,1.63 0.45,1.63 0.46,1.62 0.45,1.61 0.45,1.6 0.45,1.59 0.45,1.59 0.46,1.59 0.45,1.58 0.45,1.58 0.45,1.58 0.45,1.58 0.46,1.57 0.45,1.59 0.45,1.58 0.45,1.58 0.45,1.59 0.46,1.59 0.45,1.58 0.45,1.59 0.45,1.59 0.45,1.57 0.46,1.57 0.45,1.56 0.45,1.54 0.45,1.53 0.45,1.5 0.46,1.48 0.45,1.44 0.45,1.4 0.45,1.37 0.45,1.32 0.46,1.28 0.45,1.22 0.45,1.16 0.45,1.12 0.45,1.05 0.45,1.01 0.46,0.95 0.45,0.89 0.45,0.84 0.45,0.79 0.45,0.76 0.46,0.72 0.45,0.69 0.45,0.67 0.45,0.66 0.45,0.64 0.46,0.66 0.45,0.65 0.45,0.68 0.45,0.69 0.45,0.73 0.46,0.75 0.45,0.78 0.45,0.82 0.45,0.86 0.45,0.88 0.46,0.93 0.45,0.94 0.45,0.97 0.45,0.98 0.45,0.99 0.46,0.99 0.45,0.98 0.45,0.96 0.45,0.94 0.45,0.9 0.46,0.86 0.45,0.8 0.45,0.74 0.45,0.68 0.45,0.61 0.46,0.55 0.45,0.46 0.45,0.39 0.45,0.31 0.45,0.23 0.46,0.16 0.45,0.09 0.45,0.02 0.45,-0.04 0.45,-0.1 0.46,-0.16 0.45,-0.21 0.45,-0.25 0.45,-0.29 0.45,-0.33 0.45,-0.37 0.46,-0.4 0.45,-0.42 0.45,-0.45 0.45,-0.47 0.45,-0.49 0.46,-0.51 0.45,-0.53 0.45,-0.55 0.45,-0.57 0.45,-0.58 0.46,-0.6 0.45,-0.62 0.45,-0.63 0.45,-0.65 0.45,-0.66 0.46,-0.68 0.45,-0.68 0.45,-0.71 0.45,-0.72 0.45,-0.73 0.46,-0.74 0.45,-0.76 0.45,-0.77 0.45,-0.79 0.45,-0.8 0.46,-0.81 0.45,-0.84 0.45,-0.84 0.45,-0.87 0.45,-0.88 0.46,-0.91 0.45,-0.92 0.45,-0.95 0.45,-0.96 0.45,-0.98 0.46,-1.01 0.45,-1.03 0.45,-1.05 0.45,-1.07 0.45,-1.08 0.46,-1.1 0.45,-1.13 0.45,-1.13 0.45,-1.16 0.45,-1.17 0.46,-1.18 0.45,-1.19 0.45,-1.21 0.45,-1.23 0.45,-1.24 0.45,-1.25 0.46,-1.27 0.45,-1.29 0.45,-1.3 0.45,-1.33 0.45,-1.34 0.46,-1.36 0.45,-1.39 0.45,-1.4 0.45,-1.43 0.45,-1.44 0.46,-1.47 0.45,-1.48 0.45,-1.5 0.45,-1.52 0.45,-1.52 0.46,-1.54 0.45,-1.55 0.45,-1.55 0.45,-1.56 0.45,-1.56 0.46,-1.55 0.45,-1.56 0.45,-1.54 0.45,-1.53 0.45,-1.53 0.46,-1.51 0.45,-1.5 0.45,-1.48 0.45,-1.45 0.45,-1.45 0.46,-1.42 0.45,-1.39 0.45,-1.38 0.45,-1.35 0.45,-1.32 0.46,-1.3 0.45,-1.27 0.45,-1.24 0.45,-1.23 0.45,-1.19 0.46,-1.16 0.45,-1.15 0.45,-1.12 0.45,-1.11 0.45,-1.08 0.46,-1.07 0.45,-1.05 0.45,-1.04 0.45,-1.04 0.45,-1.03 0.46,-1.03 0.45,-1.03 0.45,-1.03 0.45,-1.04 0.45,-1.04 0.45,-1.06 0.46,-1.06 0.45,-1.07 0.45,-1.09 0.45,-1.09 0.45,-1.11 0.46,-1.11 0.45,-1.13 0.45,-1.12 0.45,-1.14 0.45,-1.13 0.46,-1.14 0.45,-1.13 0.45,-1.14 0.45,-1.12 0.45,-1.12 0.46,-1.1 0.45,-1.1 0.45,-1.08 0.45,-1.07 0.45,-1.04 0.46,-1.03 0.45,-1 0.45,-0.99 0.45,-0.95 0.45,-0.94 0.46,-0.9 0.45,-0.88 0.45,-0.84 0.45,-0.81 0.45,-0.79 0.46,-0.75 0.45,-0.72 0.45,-0.69 0.45,-0.66 0.45,-0.62 0.46,-0.6 0.45,-0.57 0.45,-0.55 0.45,-0.52 0.45,-0.5 0.46,-0.48 0.45,-0.46 0.45,-0.46 0.45,-0.44 0.45,-0.43 0.46,-0.43 0.45,-0.43 0.45,-0.43 0.45,-0.43 0.45,-0.44 0.45,-0.44 0.46,-0.45 0.45,-0.46 0.45,-0.46 0.45,-0.48 0.45,-0.48 0.46,-0.48 0.45,-0.5 0.45,-0.49 0.45,-0.5 0.45,-0.5 0.46,-0.5 0.45,-0.49 0.45,-0.48 0.45,-0.48 0.45,-0.47 0.46,-0.46 0.45,-0.44 0.45,-0.42 0.45,-0.4 0.45,-0.39 0.46,-0.36 0.45,-0.35 0.45,-0.32 0.45,-0.29 0.45,-0.26 0.46,-0.24 0.45,-0.22 0.45,-0.19 0.45,-0.17 0.45,-0.13 0.46,-0.11 0.45,-0.09 0.45,-0.07 0.45,-0.04 0.45,-0.03 h 0.46 l 0.45,0.02 0.45,0.02 0.45,0.05 0.45,0.05 0.46,0.07 0.45,0.07 0.45,0.08 0.45,0.09 0.45,0.08 0.46,0.09 0.45,0.1 0.45,0.09 0.45,0.09 0.45,0.09 0.45,0.09 0.46,0.09 0.45,0.09 0.45,0.08 0.45,0.09 0.45,0.08 0.46,0.09 0.45,0.09 0.45,0.09 0.45,0.09 0.45,0.1 0.46,0.1 0.45,0.1 0.45,0.11 0.45,0.11 0.45,0.11 0.46,0.12 0.45,0.13 0.45,0.12 0.45,0.12 0.45,0.13 0.46,0.12 0.45,0.13 0.45,0.12 0.45,0.11 0.45,0.12 0.46,0.11 0.45,0.1 0.45,0.1 0.45,0.1 0.45,0.1 0.46,0.09 0.45,0.1 0.45,0.1 0.45,0.1 0.45,0.11 0.46,0.12 0.45,0.12 0.45,0.14 0.45,0.16 0.45,0.17 0.46,0.19 0.45,0.2 0.45,0.23 0.45,0.25 0.45,0.27 0.46,0.29 0.45,0.31 0.45,0.33 0.45,0.34 0.45,0.36 0.46,0.37 0.45,0.39 0.45,0.39 0.45,0.39 0.45,0.4 0.45,0.39 0.46,0.39 0.45,0.37 0.45,0.37 0.45,0.35 0.45,0.32 0.46,0.31 0.45,0.29 0.45,0.25 0.45,0.22 0.45,0.2 0.46,0.16 0.45,0.12 0.45,0.09 0.45,0.05 0.45,0.01 0.46,-0.03 0.45,-0.07 0.45,-0.1 0.45,-0.15 0.45,-0.19 0.46,-0.23 0.45,-0.26 0.45,-0.31 0.45,-0.34 0.45,-0.38 0.46,-0.41 0.45,-0.45 0.45,-0.48 0.45,-0.51 0.45,-0.53 0.46,-0.56 0.45,-0.58 0.45,-0.6 0.45,-0.61 0.45,-0.63 0.46,-0.63 0.45,-0.64 0.45,-0.64 0.45,-0.65 0.45,-0.63 0.46,-0.64 0.45,-0.62 0.45,-0.6 0.45,-0.6 0.45,-0.57 0.46,-0.55 0.45,-0.53 0.45,-0.51 0.45,-0.49 0.45,-0.45"
           style="fill:none;stroke:#c77cff;stroke-width:1.07;stroke-linecap:butt;stroke-linejoin:round;stroke-miterlimit:10;stroke-dasharray:none;stroke-opacity:1"
           id="path364166" />
      </g>
    </g>
    <g
       id="g364168" />
    <g
       id="g364170" />
    <g
       id="g364172" />
    <g
       id="g364174" />
    <g
       id="g364176" />
    <g
       id="g364178" />
    <g
       id="g364180" />
    <g
       id="g364182" />
    <g
       id="g364184" />
    <g
       id="g364186" />
    <g
       id="g364188" />
    <g
       id="g364190" />
    <g
       id="g364192">
      <path
         d="M 28.47,31.91 V 282.52"
         style="fill:none;stroke:#000000;stroke-width:1.07;stroke-linecap:butt;stroke-linejoin:round;stroke-miterlimit:10;stroke-dasharray:none;stroke-opacity:1"
         id="path364194" />
    </g>
    <g
       id="g364196" />
    <g
       id="g364198" />
    <g
       id="g364200">
      <text
         xml:space="preserve"
         transform="matrix(1,0,0,-1,18.54,40.07)"
         style="font-variant:normal;font-weight:normal;font-size:9px;font-family:Helvetica;-inkscape-font-specification:Helvetica;writing-mode:lr-tb;fill:#4d4d4d;fill-opacity:1;fill-rule:nonzero;stroke:none"
         id="text364204"><tspan
           x="0"
           y="0"
           id="tspan364202">0</tspan></text>
      <text
         xml:space="preserve"
         transform="matrix(1,0,0,-1,18.54,85.38)"
         style="font-variant:normal;font-weight:normal;font-size:9px;font-family:Helvetica;-inkscape-font-specification:Helvetica;writing-mode:lr-tb;fill:#4d4d4d;fill-opacity:1;fill-rule:nonzero;stroke:none"
         id="text364208"><tspan
           x="0"
           y="0"
           id="tspan364206">1</tspan></text>
      <text
         xml:space="preserve"
         transform="matrix(1,0,0,-1,18.54,130.69)"
         style="font-variant:normal;font-weight:normal;font-size:9px;font-family:Helvetica;-inkscape-font-specification:Helvetica;writing-mode:lr-tb;fill:#4d4d4d;fill-opacity:1;fill-rule:nonzero;stroke:none"
         id="text364212"><tspan
           x="0"
           y="0"
           id="tspan364210">2</tspan></text>
      <text
         xml:space="preserve"
         transform="matrix(1,0,0,-1,18.54,175.99)"
         style="font-variant:normal;font-weight:normal;font-size:9px;font-family:Helvetica;-inkscape-font-specification:Helvetica;writing-mode:lr-tb;fill:#4d4d4d;fill-opacity:1;fill-rule:nonzero;stroke:none"
         id="text364216"><tspan
           x="0"
           y="0"
           id="tspan364214">3</tspan></text>
      <text
         xml:space="preserve"
         transform="matrix(1,0,0,-1,18.54,221.3)"
         style="font-variant:normal;font-weight:normal;font-size:9px;font-family:Helvetica;-inkscape-font-specification:Helvetica;writing-mode:lr-tb;fill:#4d4d4d;fill-opacity:1;fill-rule:nonzero;stroke:none"
         id="text364220"><tspan
           x="0"
           y="0"
           id="tspan364218">4</tspan></text>
      <text
         xml:space="preserve"
         transform="matrix(1,0,0,-1,18.54,266.61)"
         style="font-variant:normal;font-weight:normal;font-size:9px;font-family:Helvetica;-inkscape-font-specification:Helvetica;writing-mode:lr-tb;fill:#4d4d4d;fill-opacity:1;fill-rule:nonzero;stroke:none"
         id="text364224"><tspan
           x="0"
           y="0"
           id="tspan364222">5</tspan></text>
    </g>
    <g
       id="g364226" />
    <g
       id="g364228" />
    <g
       id="g364230">
      <path
         d="m 25.73,43.3 h 2.74"
         style="fill:none;stroke:#333333;stroke-width:1.07;stroke-linecap:butt;stroke-linejoin:round;stroke-miterlimit:10;stroke-dasharray:none;stroke-opacity:1"
         id="path364232" />
      <path
         d="m 25.73,88.61 h 2.74"
         style="fill:none;stroke:#333333;stroke-width:1.07;stroke-linecap:butt;stroke-linejoin:round;stroke-miterlimit:10;stroke-dasharray:none;stroke-opacity:1"
         id="path364234" />
      <path
         d="m 25.73,133.92 h 2.74"
         style="fill:none;stroke:#333333;stroke-width:1.07;stroke-linecap:butt;stroke-linejoin:round;stroke-miterlimit:10;stroke-dasharray:none;stroke-opacity:1"
         id="path364236" />
      <path
         d="m 25.73,179.22 h 2.74"
         style="fill:none;stroke:#333333;stroke-width:1.07;stroke-linecap:butt;stroke-linejoin:round;stroke-miterlimit:10;stroke-dasharray:none;stroke-opacity:1"
         id="path364238" />
      <path
         d="m 25.73,224.53 h 2.74"
         style="fill:none;stroke:#333333;stroke-width:1.07;stroke-linecap:butt;stroke-linejoin:round;stroke-miterlimit:10;stroke-dasharray:none;stroke-opacity:1"
         id="path364240" />
      <path
         d="m 25.73,269.84 h 2.74"
         style="fill:none;stroke:#333333;stroke-width:1.07;stroke-linecap:butt;stroke-linejoin:round;stroke-miterlimit:10;stroke-dasharray:none;stroke-opacity:1"
         id="path364242" />
    </g>
    <g
       id="g364244" />
    <g
       id="g364246" />
    <g
       id="g364248" />
    <g
       id="g364250" />
    <g
       id="g364252" />
    <g
       id="g364254" />
    <g
       id="g364256" />
    <g
       id="g364258">
      <path
         d="M 28.47,31.91 H 282.52"
         style="fill:none;stroke:#000000;stroke-width:1.07;stroke-linecap:butt;stroke-linejoin:round;stroke-miterlimit:10;stroke-dasharray:none;stroke-opacity:1"
         id="path364260" />
    </g>
    <g
       id="g364262" />
    <g
       id="g364264" />
    <g
       id="g364266">
      <path
         d="m 73.17,29.17 v 2.74"
         style="fill:none;stroke:#333333;stroke-width:1.07;stroke-linecap:butt;stroke-linejoin:round;stroke-miterlimit:10;stroke-dasharray:none;stroke-opacity:1"
         id="path364268" />
      <path
         d="m 140.56,29.17 v 2.74"
         style="fill:none;stroke:#333333;stroke-width:1.07;stroke-linecap:butt;stroke-linejoin:round;stroke-miterlimit:10;stroke-dasharray:none;stroke-opacity:1"
         id="path364270" />
      <path
         d="m 207.94,29.17 v 2.74"
         style="fill:none;stroke:#333333;stroke-width:1.07;stroke-linecap:butt;stroke-linejoin:round;stroke-miterlimit:10;stroke-dasharray:none;stroke-opacity:1"
         id="path364272" />
      <path
         d="m 275.32,29.17 v 2.74"
         style="fill:none;stroke:#333333;stroke-width:1.07;stroke-linecap:butt;stroke-linejoin:round;stroke-miterlimit:10;stroke-dasharray:none;stroke-opacity:1"
         id="path364274" />
    </g>
    <g
       id="g364276" />
    <g
       id="g364278">
      <text
         xml:space="preserve"
         transform="matrix(1,0,0,-1,66.92,20.52)"
         style="font-variant:normal;font-weight:normal;font-size:9px;font-family:Helvetica;-inkscape-font-specification:Helvetica;writing-mode:lr-tb;fill:#4d4d4d;fill-opacity:1;fill-rule:nonzero;stroke:none"
         id="text364282"><tspan
           x="0 5.0040002 7.506"
           y="0"
           sodipodi:role="line"
           id="tspan364280">0.4</tspan></text>
      <text
         xml:space="preserve"
         transform="matrix(1,0,0,-1,134.3,20.52)"
         style="font-variant:normal;font-weight:normal;font-size:9px;font-family:Helvetica;-inkscape-font-specification:Helvetica;writing-mode:lr-tb;fill:#4d4d4d;fill-opacity:1;fill-rule:nonzero;stroke:none"
         id="text364286"><tspan
           x="0 5.0040002 7.506"
           y="0"
           sodipodi:role="line"
           id="tspan364284">0.6</tspan></text>
      <text
         xml:space="preserve"
         transform="matrix(1,0,0,-1,201.68,20.52)"
         style="font-variant:normal;font-weight:normal;font-size:9px;font-family:Helvetica;-inkscape-font-specification:Helvetica;writing-mode:lr-tb;fill:#4d4d4d;fill-opacity:1;fill-rule:nonzero;stroke:none"
         id="text364290"><tspan
           x="0 5.0040002 7.506"
           y="0"
           sodipodi:role="line"
           id="tspan364288">0.8</tspan></text>
      <text
         xml:space="preserve"
         transform="matrix(1,0,0,-1,269.07,20.52)"
         style="font-variant:normal;font-weight:normal;font-size:9px;font-family:Helvetica;-inkscape-font-specification:Helvetica;writing-mode:lr-tb;fill:#4d4d4d;fill-opacity:1;fill-rule:nonzero;stroke:none"
         id="text364294"><tspan
           x="0 5.0040002 7.506"
           y="0"
           sodipodi:role="line"
           id="tspan364292">1.0</tspan></text>
    </g>
    <g
       id="g364296" />
    <g
       id="g364298" />
    <g
       id="g364300" />
    <g
       id="g364302" />
    <g
       id="g364304" />
    <g
       id="g364306" />
    <g
       id="g364308" />
    <g
       id="g364310">
      <text
         xml:space="preserve"
         transform="matrix(1,0,0,-1,127.69,7.9)"
         style="font-variant:normal;font-weight:normal;font-size:11px;font-family:Helvetica;-inkscape-font-specification:Helvetica;writing-mode:lr-tb;fill:#000000;fill-opacity:1;fill-rule:nonzero;stroke:none"
         id="text364314"><tspan
           x="0 7.3369999 11 14.663 20.778999 24.441999 27.5 31.163 37.278999 45.221001 51.942001"
           y="0"
           sodipodi:role="line"
           id="tspan364312">Error (nRF)</tspan></text>
    </g>
    <g
       id="g364316" />
    <g
       id="g364318" />
    <g
       id="g364320">
      <text
         xml:space="preserve"
         transform="matrix(0,1,1,0,13.38,139.79)"
         style="font-variant:normal;font-weight:normal;font-size:11px;font-family:Helvetica;-inkscape-font-specification:Helvetica;writing-mode:lr-tb;fill:#000000;fill-opacity:1;fill-rule:nonzero;stroke:none"
         id="text364324"><tspan
           x="0 6.1160002 12.232 18.348 23.848 26.290001 29.348"
           y="0"
           sodipodi:role="line"
           id="tspan364322">density</tspan></text>
    </g>
    <g
       id="g364326" />
    <g
       id="g364328" />
    <g
       id="g364330" />
    <g
       id="g364332" />
    <g
       id="g364334" />
    <g
       id="g364336" />
    <g
       id="g364338" />
    <g
       id="g364340" />
    <g
       id="g364342">
      <path
         d="m 210.42,196.99 h 67.98 v 95.88 h -67.98 z"
         style="fill:#ffffff;fill-opacity:1;fill-rule:nonzero;stroke:none"
         id="path364344" />
    </g>
    <g
       id="g364346" />
    <g
       id="g364348" />
    <g
       id="g364350" />
    <g
       id="g364352">
      <text
         xml:space="preserve"
         transform="matrix(1,0,0,-1,215.9,278.28)"
         style="font-variant:normal;font-weight:normal;font-size:11px;font-family:Helvetica;-inkscape-font-specification:Helvetica;writing-mode:lr-tb;fill:#000000;fill-opacity:1;fill-rule:nonzero;stroke:none"
         id="text364356"><tspan
           x="0 6.1160002 12.232 15.29 21.406 26.906 33.021999"
           y="0"
           sodipodi:role="line"
           id="tspan364354">dataset</tspan></text>
    </g>
    <g
       id="g364358" />
    <g
       id="g364360" />
    <g
       id="g364362" />
    <g
       id="g364364" />
    <g
       id="g364366" />
    <g
       id="g364368">
      <path
         d="m 216.61,255.02 h 15.86 v 15.86 h -15.86 z"
         style="fill:none;stroke:#f8766d;stroke-width:1.07;stroke-linecap:butt;stroke-linejoin:miter;stroke-miterlimit:10;stroke-dasharray:none;stroke-opacity:1"
         id="path364370" />
    </g>
    <g
       id="g364372" />
    <g
       id="g364374" />
    <g
       id="g364376" />
    <g
       id="g364378">
      <path
         d="m 216.61,237.74 h 15.86 v 15.86 h -15.86 z"
         style="fill:none;stroke:#7cae00;stroke-width:1.07;stroke-linecap:butt;stroke-linejoin:miter;stroke-miterlimit:10;stroke-dasharray:none;stroke-opacity:1"
         id="path364380" />
    </g>
    <g
       id="g364382" />
    <g
       id="g364384" />
    <g
       id="g364386" />
    <g
       id="g364388">
      <path
         d="m 216.61,220.46 h 15.86 v 15.86 h -15.86 z"
         style="fill:none;stroke:#00bfc4;stroke-width:1.07;stroke-linecap:butt;stroke-linejoin:miter;stroke-miterlimit:10;stroke-dasharray:none;stroke-opacity:1"
         id="path364390" />
    </g>
    <g
       id="g364392" />
    <g
       id="g364394" />
    <g
       id="g364396" />
    <g
       id="g364398">
      <path
         d="m 216.61,203.18 h 15.86 v 15.86 h -15.86 z"
         style="fill:none;stroke:#c77cff;stroke-width:1.07;stroke-linecap:butt;stroke-linejoin:miter;stroke-miterlimit:10;stroke-dasharray:none;stroke-opacity:1"
         id="path364400" />
    </g>
    <g
       id="g364402" />
    <g
       id="g364404" />
    <g
       id="g364406" />
    <g
       id="g364408">
      <text
         xml:space="preserve"
         transform="matrix(1,0,0,-1,238.66,259.72)"
         style="font-variant:normal;font-weight:normal;font-size:9px;font-family:Helvetica;-inkscape-font-specification:Helvetica;writing-mode:lr-tb;fill:#000000;fill-opacity:1;fill-rule:nonzero;stroke:none"
         id="text364412"><tspan
           x="0 5.0040002 10.008"
           y="0"
           sodipodi:role="line"
           id="tspan364410">10k</tspan></text>
    </g>
    <g
       id="g364414" />
    <g
       id="g364416" />
    <g
       id="g364418" />
    <g
       id="g364420" />
    <g
       id="g364422" />
    <g
       id="g364424">
      <text
         xml:space="preserve"
         transform="matrix(1,0,0,-1,238.66,242.44)"
         style="font-variant:normal;font-weight:normal;font-size:9px;font-family:Helvetica;-inkscape-font-specification:Helvetica;writing-mode:lr-tb;fill:#000000;fill-opacity:1;fill-rule:nonzero;stroke:none"
         id="text364428"><tspan
           x="0 6.4980001 12.996 18.252001 23.256001 28.26"
           y="0"
           sodipodi:role="line"
           id="tspan364426">HD−500</tspan></text>
    </g>
    <g
       id="g364430" />
    <g
       id="g364432" />
    <g
       id="g364434" />
    <g
       id="g364436" />
    <g
       id="g364438" />
    <g
       id="g364440">
      <text
         xml:space="preserve"
         transform="matrix(1,0,0,-1,238.66,225.16)"
         style="font-variant:normal;font-weight:normal;font-size:9px;font-family:Helvetica;-inkscape-font-specification:Helvetica;writing-mode:lr-tb;fill:#000000;fill-opacity:1;fill-rule:nonzero;stroke:none"
         id="text364444"><tspan
           x="0 5.0040002 11.502 16.757999 21.761999 26.766001"
           y="0"
           sodipodi:role="line"
           id="tspan364442">LD−100</tspan></text>
    </g>
    <g
       id="g364446" />
    <g
       id="g364448" />
    <g
       id="g364450" />
    <g
       id="g364452" />
    <g
       id="g364454" />
    <g
       id="g364456">
      <text
         xml:space="preserve"
         transform="matrix(1,0,0,-1,238.66,207.88)"
         style="font-variant:normal;font-weight:normal;font-size:9px;font-family:Helvetica;-inkscape-font-specification:Helvetica;writing-mode:lr-tb;fill:#000000;fill-opacity:1;fill-rule:nonzero;stroke:none"
         id="text364460"><tspan
           x="0 7.4970002 13.995 19.250999 24.254999 29.259001"
           y="0"
           sodipodi:role="line"
           id="tspan364458">MD−500</tspan></text>
    </g>
    <g
       id="g364462" />
    <g
       id="g364464" />
    <g
       id="g364466" />
    <g
       id="g364468" />
    <g
       id="g364470" />
    <g
       id="g364472" />
    <g
       id="g364474" />
    <g
       id="g364476" />
    <g
       id="g364478" />
    <g
       id="g364480" />
    <g
       id="g364482" />
    <g
       id="g364484" />
    <g
       id="g364486" />
    <g
       id="g364488" />
    <g
       id="g364490" />
    <g
       id="g364492" />
  </g>
</svg>
