<?xml version="1.0" encoding="UTF-8" standalone="no"?>
<!-- Created with Inkscape (http://www.inkscape.org/) -->

<svg
   width="576"
   height="528"
   version="1.1"
   viewBox="0 0 576 528"
   xml:space="preserve"
   id="svg2077"
   sodipodi:docname="lpp_16k_ecdf.svg"
   inkscape:version="1.2.1 (9c6d41e, 2022-07-14)"
   inkscape:export-filename="lpp_16k_ecdf.pdf"
   inkscape:export-xdpi="96"
   inkscape:export-ydpi="96"
   xmlns:inkscape="http://www.inkscape.org/namespaces/inkscape"
   xmlns:sodipodi="http://sodipodi.sourceforge.net/DTD/sodipodi-0.dtd"
   xmlns="http://www.w3.org/2000/svg"
   xmlns:svg="http://www.w3.org/2000/svg"><sodipodi:namedview
     id="namedview2079"
     pagecolor="#ffffff"
     bordercolor="#000000"
     borderopacity="0.25"
     inkscape:showpageshadow="2"
     inkscape:pageopacity="0.0"
     inkscape:pagecheckerboard="0"
     inkscape:deskcolor="#d1d1d1"
     showgrid="false"
     inkscape:zoom="1.5077184"
     inkscape:cx="319.35673"
     inkscape:cy="252.69971"
     inkscape:window-width="1512"
     inkscape:window-height="818"
     inkscape:window-x="0"
     inkscape:window-y="278"
     inkscape:window-maximized="0"
     inkscape:current-layer="svg2077" /><defs
     id="defs1607"><clipPath
       id="clipPath131"><path
         d="m0 0h432v396h-432z"
         id="path1061" /></clipPath><clipPath
       id="clipPath143"><path
         d="m40.98 31.91h323.27v358.61h-323.27z"
         id="path1064" /></clipPath><clipPath
       id="clipPath2403"><g
         id="g1073"><g
           id="g1071"><g
             id="g1069"><path
               d="m89.164 239.97h305.33v-157.75h-305.33z"
               id="path1067" /></g></g></g></clipPath><clipPath
       id="clipPath2415"><g
         id="g1082"><g
           id="g1080"><g
             id="g1078"><path
               d="m89.164 239.97h305.33v-157.75h-305.33z"
               id="path1076" /></g></g></g></clipPath><clipPath
       id="clipPath2427"><g
         id="g1091"><g
           id="g1089"><g
             id="g1087"><path
               d="m89.164 239.97h305.33v-157.75h-305.33z"
               id="path1085" /></g></g></g></clipPath><clipPath
       id="clipPath2439"><g
         id="g1100"><g
           id="g1098"><g
             id="g1096"><path
               d="m89.164 239.97h305.33v-157.75h-305.33z"
               id="path1094" /></g></g></g></clipPath><clipPath
       id="clipPath2451"><g
         id="g1109"><g
           id="g1107"><g
             id="g1105"><path
               d="m89.164 239.97h305.33v-157.75h-305.33z"
               id="path1103" /></g></g></g></clipPath><clipPath
       id="clipPath2463"><g
         id="g1118"><g
           id="g1116"><g
             id="g1114"><path
               d="m89.164 239.97h305.33v-157.75h-305.33z"
               id="path1112" /></g></g></g></clipPath><clipPath
       id="clipPath2475"><g
         id="g1127"><g
           id="g1125"><g
             id="g1123"><path
               d="m89.164 239.97h305.33v-157.75h-305.33z"
               id="path1121" /></g></g></g></clipPath><clipPath
       id="clipPath2487"><g
         id="g1136"><g
           id="g1134"><g
             id="g1132"><path
               d="m89.164 239.97h305.33v-157.75h-305.33z"
               id="path1130" /></g></g></g></clipPath><clipPath
       id="clipPath2499"><g
         id="g1145"><g
           id="g1143"><g
             id="g1141"><path
               d="m89.164 239.97h305.33v-157.75h-305.33z"
               id="path1139" /></g></g></g></clipPath><clipPath
       id="clipPath2511"><g
         id="g1154"><g
           id="g1152"><g
             id="g1150"><path
               d="m89.164 239.97h305.33v-157.75h-305.33z"
               id="path1148" /></g></g></g></clipPath><clipPath
       id="clipPath2523"><g
         id="g1163"><g
           id="g1161"><g
             id="g1159"><path
               d="m89.164 239.97h305.33v-157.75h-305.33z"
               id="path1157" /></g></g></g></clipPath><clipPath
       id="clipPath2535"><g
         id="g1172"><g
           id="g1170"><g
             id="g1168"><path
               d="m89.164 239.97h305.33v-157.75h-305.33z"
               id="path1166" /></g></g></g></clipPath><clipPath
       id="clipPath2547"><g
         id="g1181"><g
           id="g1179"><g
             id="g1177"><path
               d="m89.164 239.97h305.33v-157.75h-305.33z"
               id="path1175" /></g></g></g></clipPath><clipPath
       id="clipPath2559"><g
         id="g1190"><g
           id="g1188"><g
             id="g1186"><path
               d="m89.164 239.97h305.33v-157.75h-305.33z"
               id="path1184" /></g></g></g></clipPath><clipPath
       id="clipPath2571"><g
         id="g1199"><g
           id="g1197"><g
             id="g1195"><path
               d="m89.164 239.97h305.33v-157.75h-305.33z"
               id="path1193" /></g></g></g></clipPath><clipPath
       id="clipPath2583"><g
         id="g1208"><g
           id="g1206"><g
             id="g1204"><path
               d="m89.164 239.97h305.33v-157.75h-305.33z"
               id="path1202" /></g></g></g></clipPath><clipPath
       id="clipPath2595"><g
         id="g1217"><g
           id="g1215"><g
             id="g1213"><path
               d="m89.164 239.97h305.33v-157.75h-305.33z"
               id="path1211" /></g></g></g></clipPath><clipPath
       id="clipPath2607"><g
         id="g1226"><g
           id="g1224"><g
             id="g1222"><path
               d="m89.164 239.97h305.33v-157.75h-305.33z"
               id="path1220" /></g></g></g></clipPath><clipPath
       id="clipPath2619"><g
         id="g1235"><g
           id="g1233"><g
             id="g1231"><path
               d="m89.164 239.97h305.33v-157.75h-305.33z"
               id="path1229" /></g></g></g></clipPath><clipPath
       id="clipPath2631"><g
         id="g1244"><g
           id="g1242"><g
             id="g1240"><path
               d="m89.164 239.97h305.33v-157.75h-305.33z"
               id="path1238" /></g></g></g></clipPath><clipPath
       id="clipPath2643"><g
         id="g1253"><g
           id="g1251"><g
             id="g1249"><path
               d="m89.164 239.97h305.33v-157.75h-305.33z"
               id="path1247" /></g></g></g></clipPath><clipPath
       id="clipPath2655"><g
         id="g1262"><g
           id="g1260"><g
             id="g1258"><path
               d="m89.164 239.97h305.33v-157.75h-305.33z"
               id="path1256" /></g></g></g></clipPath><clipPath
       id="clipPath2667"><g
         id="g1271"><g
           id="g1269"><g
             id="g1267"><path
               d="m89.164 239.97h305.33v-157.75h-305.33z"
               id="path1265" /></g></g></g></clipPath><clipPath
       id="clipPath2679"><g
         id="g1280"><g
           id="g1278"><g
             id="g1276"><path
               d="m89.164 239.97h305.33v-157.75h-305.33z"
               id="path1274" /></g></g></g></clipPath><clipPath
       id="clipPath2691"><g
         id="g1289"><g
           id="g1287"><g
             id="g1285"><path
               d="m89.164 239.97h305.33v-157.75h-305.33z"
               id="path1283" /></g></g></g></clipPath><clipPath
       id="clipPath2703"><g
         id="g1298"><g
           id="g1296"><g
             id="g1294"><path
               d="m89.164 239.97h305.33v-157.75h-305.33z"
               id="path1292" /></g></g></g></clipPath><clipPath
       id="clipPath2715"><g
         id="g1307"><g
           id="g1305"><g
             id="g1303"><path
               d="m89.164 239.97h305.33v-157.75h-305.33z"
               id="path1301" /></g></g></g></clipPath><clipPath
       id="clipPath2727"><g
         id="g1316"><g
           id="g1314"><g
             id="g1312"><path
               d="m89.164 239.97h305.33v-157.75h-305.33z"
               id="path1310" /></g></g></g></clipPath><clipPath
       id="clipPath2739"><g
         id="g1325"><g
           id="g1323"><g
             id="g1321"><path
               d="m89.164 239.97h305.33v-157.75h-305.33z"
               id="path1319" /></g></g></g></clipPath><clipPath
       id="clipPath2751"><g
         id="g1334"><g
           id="g1332"><g
             id="g1330"><path
               d="m89.164 239.97h305.33v-157.75h-305.33z"
               id="path1328" /></g></g></g></clipPath><clipPath
       id="clipPath2763"><g
         id="g1343"><g
           id="g1341"><g
             id="g1339"><path
               d="m89.164 239.97h305.33v-157.75h-305.33z"
               id="path1337" /></g></g></g></clipPath><clipPath
       id="clipPath2775"><g
         id="g1352"><g
           id="g1350"><g
             id="g1348"><path
               d="m89.164 239.97h305.33v-157.75h-305.33z"
               id="path1346" /></g></g></g></clipPath><clipPath
       id="clipPath2787"><g
         id="g1361"><g
           id="g1359"><g
             id="g1357"><path
               d="m89.164 239.97h305.33v-157.75h-305.33z"
               id="path1355" /></g></g></g></clipPath><clipPath
       id="clipPath2799"><g
         id="g1370"><g
           id="g1368"><g
             id="g1366"><path
               d="m89.164 239.97h305.33v-157.75h-305.33z"
               id="path1364" /></g></g></g></clipPath><clipPath
       id="clipPath2811"><g
         id="g1379"><g
           id="g1377"><g
             id="g1375"><path
               d="m89.164 239.97h305.33v-157.75h-305.33z"
               id="path1373" /></g></g></g></clipPath><clipPath
       id="clipPath2823"><g
         id="g1388"><g
           id="g1386"><g
             id="g1384"><path
               d="m89.164 239.97h305.33v-157.75h-305.33z"
               id="path1382" /></g></g></g></clipPath><clipPath
       id="clipPath2835"><g
         id="g1397"><g
           id="g1395"><g
             id="g1393"><path
               d="m89.164 239.97h305.33v-157.75h-305.33z"
               id="path1391" /></g></g></g></clipPath><clipPath
       id="clipPath2847"><g
         id="g1406"><g
           id="g1404"><g
             id="g1402"><path
               d="m89.164 239.97h305.33v-157.75h-305.33z"
               id="path1400" /></g></g></g></clipPath><clipPath
       id="clipPath2859"><g
         id="g1415"><g
           id="g1413"><g
             id="g1411"><path
               d="m89.164 239.97h305.33v-157.75h-305.33z"
               id="path1409" /></g></g></g></clipPath><clipPath
       id="clipPath2871"><g
         id="g1424"><g
           id="g1422"><g
             id="g1420"><path
               d="m89.164 239.97h305.33v-157.75h-305.33z"
               id="path1418" /></g></g></g></clipPath><clipPath
       id="clipPath2883"><g
         id="g1433"><g
           id="g1431"><g
             id="g1429"><path
               d="m89.164 239.97h305.33v-157.75h-305.33z"
               id="path1427" /></g></g></g></clipPath><clipPath
       id="clipPath2895"><g
         id="g1442"><g
           id="g1440"><g
             id="g1438"><path
               d="m89.164 239.97h305.33v-157.75h-305.33z"
               id="path1436" /></g></g></g></clipPath><clipPath
       id="clipPath2907"><g
         id="g1451"><g
           id="g1449"><g
             id="g1447"><path
               d="m89.164 239.97h305.33v-157.75h-305.33z"
               id="path1445" /></g></g></g></clipPath><clipPath
       id="clipPath2919"><g
         id="g1460"><g
           id="g1458"><g
             id="g1456"><path
               d="m89.164 239.97h305.33v-157.75h-305.33z"
               id="path1454" /></g></g></g></clipPath><clipPath
       id="clipPath2931"><g
         id="g1469"><g
           id="g1467"><g
             id="g1465"><path
               d="m89.164 239.97h305.33v-157.75h-305.33z"
               id="path1463" /></g></g></g></clipPath><clipPath
       id="clipPath2943"><g
         id="g1478"><g
           id="g1476"><g
             id="g1474"><path
               d="m89.164 239.97h305.33v-157.75h-305.33z"
               id="path1472" /></g></g></g></clipPath><clipPath
       id="clipPath2955"><g
         id="g1487"><g
           id="g1485"><g
             id="g1483"><path
               d="m89.164 239.97h305.33v-157.75h-305.33z"
               id="path1481" /></g></g></g></clipPath><clipPath
       id="clipPath2967"><g
         id="g1496"><g
           id="g1494"><g
             id="g1492"><path
               d="m89.164 239.97h305.33v-157.75h-305.33z"
               id="path1490" /></g></g></g></clipPath><clipPath
       id="clipPath2979"><g
         id="g1505"><g
           id="g1503"><g
             id="g1501"><path
               d="m89.164 239.97h305.33v-157.75h-305.33z"
               id="path1499" /></g></g></g></clipPath><clipPath
       id="clipPath2991"><g
         id="g1514"><g
           id="g1512"><g
             id="g1510"><path
               d="m89.164 239.97h305.33v-157.75h-305.33z"
               id="path1508" /></g></g></g></clipPath><clipPath
       id="clipPath3003"><g
         id="g1523"><g
           id="g1521"><g
             id="g1519"><path
               d="m89.164 239.97h305.33v-157.75h-305.33z"
               id="path1517" /></g></g></g></clipPath><clipPath
       id="clipPath3015"><g
         id="g1532"><g
           id="g1530"><g
             id="g1528"><path
               d="m89.164 239.97h305.33v-157.75h-305.33z"
               id="path1526" /></g></g></g></clipPath><clipPath
       id="clipPath3027"><g
         id="g1541"><g
           id="g1539"><g
             id="g1537"><path
               d="m89.164 239.97h305.33v-157.75h-305.33z"
               id="path1535" /></g></g></g></clipPath><clipPath
       id="clipPath3039"><g
         id="g1550"><g
           id="g1548"><g
             id="g1546"><path
               d="m89.164 239.97h305.33v-157.75h-305.33z"
               id="path1544" /></g></g></g></clipPath><clipPath
       id="clipPath3051"><g
         id="g1559"><g
           id="g1557"><g
             id="g1555"><path
               d="m89.164 239.97h305.33v-157.75h-305.33z"
               id="path1553" /></g></g></g></clipPath><clipPath
       id="clipPath3063"><g
         id="g1568"><g
           id="g1566"><g
             id="g1564"><path
               d="m89.164 239.97h305.33v-157.75h-305.33z"
               id="path1562" /></g></g></g></clipPath><clipPath
       id="clipPath3075"><g
         id="g1577"><g
           id="g1575"><g
             id="g1573"><path
               d="m89.164 239.97h305.33v-157.75h-305.33z"
               id="path1571" /></g></g></g></clipPath><clipPath
       id="clipPath3087"><g
         id="g1586"><g
           id="g1584"><g
             id="g1582"><path
               d="m89.164 239.97h305.33v-157.75h-305.33z"
               id="path1580" /></g></g></g></clipPath><clipPath
       id="clipPath3099"><g
         id="g1595"><g
           id="g1593"><g
             id="g1591"><path
               d="m89.164 239.97h305.33v-157.75h-305.33z"
               id="path1589" /></g></g></g></clipPath><clipPath
       id="clipPath3111"><g
         id="g1604"><g
           id="g1602"><g
             id="g1600"><path
               d="m89.164 239.97h305.33v-157.75h-305.33z"
               id="path1598" /></g></g></g></clipPath></defs><path
     d="M 0,528 H 575.9856 V 0.0132 H 0 Z"
     fill="#ffffff"
     id="path1609"
     style="stroke-width:1.3333" /><g
     transform="matrix(1.3333,0,0,-1.3333,0,506.00055)"
     id="g1615"><g
       clip-path="url(#clipPath131)"
       id="g1613"><path
         d="M 0,0 H 432 V 396 H 0 Z"
         fill="#ffffff"
         stroke="#ffffff"
         stroke-linecap="round"
         stroke-linejoin="round"
         stroke-miterlimit="10"
         stroke-width="1.07"
         id="path1611" /></g></g><g
     clip-path="url(#clipPath143)"
     id="g1661"
     transform="matrix(1.3333,0,0,-1.3333,-18.8197,507.32484)"><path
       d="M 40.98,31.91 H 364.25 V 390.52 H 40.98 Z"
       fill="#ffffff"
       id="path1617" /><g
       fill="none"
       stroke-linejoin="round"
       stroke-miterlimit="10"
       stroke-width="1.07"
       id="g1659"><path
         d="m 40.98,48.21 h 14.7 v 0.81 h 14.69 v 0.41 H 88 v 0.41 h 38.21 v 0.4 h 14.69 v 0.81 h 14.7 v 0.41 h 5.87 v 0.41 h 8.82 v 0.4 h 2.94 v 0.41 h 5.88 v 0.81 h 2.94 v 0.4 h 5.87 v 0.82 h 2.94 v 0.4 h 2.94 v 0.41 h 2.94 v 0.81 h 2.94 v 1.22 h 2.94 v 0.4 h 2.94 v 0.41 h 2.94 v 1.22 h 8.81 v 1.22 h 5.88 v 1.21 h 2.94 v 0.82 h 2.94 v 0.81 h 2.94 v 1.22 h 2.94 v 0.4 h 2.93 v 0.81 h 2.94 v 0.82 h 2.94 v 0.81 h 2.94 v 0.81 h 5.88 v 1.22 h 2.94 v 0.81 h 2.94 v 1.22 h 2.94 v 0.4 h 2.93 v 0.82 h 2.94 v 0.81 h 5.88 v 0.4 h 2.94 v 1.22 h 2.94 v 2.03 h 2.94 v 0.81 h 2.94 v 1.63 h 2.93 v 0.81 h 2.94 v 0.41 h 2.94 v 0.4 h 2.94 v 1.22 h 2.94 v 0.81 h 2.94 v 0.81 h 2.94 v 0.41 h 2.94 v 0.41 h 2.94 v 1.21 h 2.93 v 0.82 h 2.94 V 88 h 2.94 v 1.22 h 2.94 v 0.81 h 2.94 v 1.62 h 2.94 v 2.03 h 2.94 v 1.63 h 2.94 v 1.62 h 2.94 v 2.44 h 2.93 v 6.09 h 2.94 v 4.06 h 2.94 v 8.93 h 2.94 v 255.77 h 14.69"
         stroke="#f8766d"
         id="path1619" /><path
         d="m 40.98,48.21 h 14.7 v 0.41 h 11.75 v 0.81 h 8.82 v 0.4 h 14.69 v 0.41 h 5.88 v 0.4 h 17.63 v 0.41 h 20.58 v 0.4 h 8.81 v 0.41 h 2.94 v 0.4 h 5.88 v 0.41 h 5.88 v 0.81 h 8.81 v 0.4 h 5.88 v 0.81 h 2.94 v 0.81 h 5.88 v 0.41 h 2.94 v 0.4 h 2.93 v 0.41 h 2.94 v 0.4 h 2.94 v 0.81 h 2.94 v 0.41 h 14.7 v 0.4 h 2.93 v 0.41 h 2.94 v 0.4 h 2.94 v 1.22 h 2.94 v 0.4 h 2.94 v 0.81 h 2.94 v 1.22 h 2.94 v 0.81 h 2.94 v 0.81 h 2.93 v 0.4 h 2.94 v 1.22 h 2.94 v 0.81 h 2.94 v 1.21 h 5.88 v 0.41 h 2.94 v 0.4 h 2.94 v 1.22 h 2.94 v 1.21 h 2.93 v 1.21 h 2.94 v 0.41 h 2.94 v 0.81 h 2.94 v 0.4 h 2.94 v 0.41 h 2.94 v 0.4 h 2.94 v 0.41 h 2.94 v 0.81 h 2.93 v 0.81 h 2.94 v 0.81 h 2.94 v 0.4 h 2.94 v 0.81 h 2.94 v 0.41 h 2.94 v 0.81 h 2.94 v 1.21 h 2.94 v 2.03 h 2.94 v 0.81 h 2.93 v 1.21 h 2.94 v 0.81 h 2.94 v 2.84 h 2.94 v 0.81 h 2.94 v 1.21 h 2.94 v 1.62 h 2.94 v 1.22 h 2.94 v 2.83 h 2.94 v 2.84 h 2.93 v 2.02 h 2.94 v 4.46 h 2.94 v 7.29 h 2.94 v 260.4 h 14.69"
         stroke="#ea8331"
         id="path1621" /><path
         d="m 40.98,48.21 h 17.64 v 0.44 h 17.63 v 0.44 h 2.94 v 0.43 h 32.32 v 0.44 h 8.82 v 0.44 h 5.88 v 0.43 h 20.57 v 0.88 h 8.82 v 0.87 h 8.81 v 0.44 h 2.94 v 0.44 h 2.94 v 0.43 h 2.94 v 0.88 h 2.94 v 0.87 h 2.94 v 0.87 h 2.94 v 0.44 h 5.87 v 0.88 h 14.7 v 0.43 h 5.88 v 0.44 h 2.94 v 0.44 h 2.93 v 0.43 h 8.82 v 0.88 h 2.94 v 0.43 h 5.88 v 0.88 h 2.94 v 0.44 h 2.93 v 0.87 h 2.94 v 0.44 h 2.94 v 1.31 h 2.94 v 0.87 h 2.94 v 0.44 h 2.94 v 1.31 h 2.94 v 0.87 h 5.88 v 0.88 h 2.93 v 0.43 h 2.94 v 1.32 h 2.94 v 0.43 h 2.94 v 1.31 h 2.94 v 1.31 h 2.94 v 0.44 h 2.94 v 0.44 h 2.94 v 0.87 h 2.93 v 1.31 h 2.94 v 2.19 h 2.94 v 0.87 h 2.94 v 0.88 h 2.94 v 1.74 h 2.94 v 0.88 h 2.94 v 1.31 h 2.94 v 1.75 h 2.94 v 1.31 h 2.93 v 1.31 h 2.94 v 2.62 h 2.94 v 1.31 h 2.94 v 1.75 h 2.94 v 3.06 h 2.94 v 2.62 h 2.94 v 1.75 h 2.94 v 2.19 h 2.94 v 3.93 h 2.93 v 1.31 h 2.94 v 4.37 h 2.94 v 9.18 h 2.94 v 250.84 h 14.69"
         stroke="#d89000"
         id="path1623" /><path
         d="m 40.98,48.21 h 14.7 v 2.6 h 5.87 v 0.52 h 8.82 v 0.51 h 11.76 v 0.52 h 14.69 v 0.52 h 5.88 v 0.52 h 11.75 v 0.52 h 11.76 v 0.52 h 2.94 v 0.52 h 11.75 v 0.52 h 8.82 v 1.04 h 11.75 v 0.52 h 2.94 v 0.52 h 8.82 v 0.51 h 5.88 v 0.52 h 2.94 v 0.52 h 5.87 v 0.52 h 2.94 v 1.04 h 2.94 v 2.08 h 2.94 v 0.52 h 5.88 v 0.51 h 2.94 v 0.52 h 2.94 v 0.52 h 2.94 v 1.56 h 2.93 v 1.04 h 2.94 v 0.52 h 2.94 v 0.52 h 2.94 v 2.07 h 2.94 v 1.04 h 5.88 v 0.52 h 2.94 v 1.04 h 2.93 v 1.56 h 2.94 v 2.07 h 2.94 v 1.04 h 2.94 v 1.04 h 2.94 v 0.52 h 2.94 v 2.59 h 5.88 v 1.56 h 2.94 v 0.52 h 2.93 v 1.04 h 2.94 v 0.52 h 2.94 v 1.56 h 2.94 v 0.51 h 5.88 v 1.04 h 2.94 v 1.56 h 2.94 v 1.04 h 2.93 v 0.52 h 2.94 v 1.04 h 2.94 v 2.07 h 5.88 v 1.56 h 2.94 v 1.04 h 2.94 v 1.04 h 2.94 v 2.59 h 2.94 v 1.56 h 5.87 v 1.56 h 2.94 v 0.52 h 2.94 v 1.03 h 2.94 v 2.08 h 2.94 v 1.04 h 2.94 v 1.56 h 2.94 v 1.03 h 2.94 v 1.56 h 2.93 v 2.6 h 2.94 v 4.15 h 2.94 v 5.19 h 2.94 v 249.18 h 14.69"
         stroke="#c09b00"
         id="path1625" /><path
         d="m 40.98,48.21 h 14.7 v 0.69 h 38.2 v 0.35 h 20.57 v 0.69 h 29.39 v 0.35 h 8.82 v 0.34 h 8.81 v 0.35 h 5.88 v 0.69 h 2.94 v 0.34 h 2.94 v 0.35 h 2.94 v 1.04 h 11.75 v 0.34 h 5.88 v 0.69 h 2.94 v 0.7 h 2.94 v 0.69 h 2.94 v 0.69 h 2.94 v 0.34 h 2.94 v 1.04 h 2.94 v 1.38 h 2.93 v 0.7 h 2.94 v 0.69 h 2.94 v 1.38 h 2.94 v 0.35 h 5.88 v 0.34 h 2.94 v 0.35 h 5.87 v 0.69 h 8.82 v 1.38 h 2.94 v 0.69 h 2.94 v 0.69 h 2.94 v 0.7 h 2.94 v 0.69 h 2.94 v 1.03 h 2.93 v 0.7 h 2.94 v 0.69 h 2.94 v 1.73 h 2.94 v 0.69 h 2.94 v 0.69 h 2.94 v 0.69 h 2.94 v 0.35 h 2.94 v 1.03 h 2.93 v 0.69 h 2.94 v 1.04 h 2.94 v 1.04 h 2.94 v 0.69 h 2.94 v 0.69 h 2.94 v 0.69 h 2.94 v 0.35 h 5.88 v 1.04 h 2.93 v 1.38 h 2.94 v 2.07 h 2.94 v 0.35 h 2.94 v 1.38 h 2.94 v 1.38 h 2.94 v 1.39 h 2.94 v 2.42 h 2.94 v 1.73 h 2.94 v 1.38 h 2.93 v 2.76 h 2.94 v 2.77 h 2.94 v 5.19 h 2.94 v 268.27 h 14.69"
         stroke="#a3a500"
         id="path1627" /><path
         d="m 40.98,48.21 h 14.7 v 1.68 h 26.45 v 0.55 h 8.81 V 51 h 20.57 v 0.56 h 8.82 v 0.56 h 8.82 v 0.56 h 20.57 v 0.56 h 2.94 v 0.55 h 14.69 v 0.56 h 2.94 v 0.56 h 2.94 v 0.56 h 5.88 v 0.56 h 2.94 v 0.55 h 2.94 v 0.56 h 5.87 v 0.56 h 5.88 v 0.56 h 2.94 v 0.56 h 2.94 v 0.56 h 2.94 v 0.55 h 5.88 v 1.12 h 5.87 v 1.68 h 2.94 v 1.11 h 2.94 v 1.12 h 2.94 v 0.56 h 5.88 v 0.55 h 5.87 v 0.56 h 2.94 v 0.56 h 2.94 v 1.68 h 2.94 v 0.55 h 2.94 v 1.12 h 2.94 v 0.56 h 11.75 v 1.67 h 2.94 v 1.68 h 2.94 v 0.56 h 11.76 v 1.11 h 2.94 v 1.12 h 2.93 v 1.12 h 2.94 v 0.55 h 2.94 v 1.12 h 2.94 v 1.12 h 5.88 v 2.23 h 2.94 v 0.56 h 2.94 v 1.11 h 8.81 v 2.24 h 5.88 v 2.23 h 2.94 v 2.23 h 2.94 v 1.12 h 2.94 v 1.67 h 2.94 v 1.12 h 2.94 v 3.35 h 2.93 v 3.91 h 2.94 v 6.7 h 2.94 v 7.81 h 2.94 v 256.79 h 14.69"
         stroke="#7cae00"
         id="path1629" /><path
         d="m 40.98,48.21 h 17.64 v 0.35 h 8.81 v 0.34 h 5.88 v 0.35 h 67.59 v 0.35 h 2.94 v 0.35 h 8.82 v 0.69 h 17.63 v 0.35 h 5.88 v 0.34 h 5.88 v 1.04 h 2.94 v 0.7 h 5.87 v 0.69 h 2.94 v 0.69 h 2.94 v 0.7 h 2.94 v 1.04 h 2.94 v 1.04 h 2.94 v 0.35 h 2.94 v 1.04 h 2.94 v 0.34 h 5.87 v 1.39 h 8.82 v 0.69 h 2.94 v 0.7 h 2.94 v 0.69 h 2.94 v 0.35 h 2.93 v 0.69 h 5.88 v 0.69 h 8.82 v 0.7 h 2.94 v 0.35 h 2.94 v 1.04 h 2.94 v 0.69 h 2.93 v 0.69 h 2.94 v 0.7 h 2.94 v 0.69 h 2.94 v 0.35 h 2.94 v 0.69 h 2.94 v 1.04 h 2.94 v 1.74 h 2.94 v 0.69 h 2.93 v 0.69 h 2.94 v 1.39 h 2.94 v 1.04 h 2.94 v 1.39 h 2.94 v 1.38 h 2.94 v 0.35 h 5.88 v 1.39 h 2.94 v 1.04 h 2.93 v 1.04 h 2.94 v 1.39 h 2.94 v 1.73 h 2.94 v 2.08 h 2.94 v 2.78 h 2.94 v 2.42 h 2.94 v 1.74 h 2.94 v 2.77 h 2.94 v 1.74 h 2.93 v 2.77 h 2.94 v 3.12 h 2.94 v 10.75 h 2.94 v 257.69 h 14.69"
         stroke="#39b600"
         id="path1631" /><path
         d="m 40.98,48.21 h 14.7 v 2.09 h 11.75 v 0.42 h 38.21 v 0.42 h 5.87 v 0.84 h 2.94 v 0.42 h 5.88 v 0.41 h 2.94 v 0.42 h 17.63 v 0.42 h 5.88 v 0.84 h 5.88 v 0.42 h 2.94 v 0.42 h 5.87 v 0.83 h 5.88 V 57 h 2.94 v 0.42 h 14.7 v 0.84 h 2.93 v 0.41 h 2.94 v 0.42 h 2.94 v 0.42 h 2.94 v 0.42 h 2.94 v 0.84 h 2.94 v 0.41 h 2.94 v 0.42 h 2.94 v 1.68 h 2.94 v 0.42 h 2.93 v 0.41 h 2.94 v 0.84 h 2.94 v 0.84 h 2.94 v 0.83 h 2.94 v 1.26 h 2.94 v 0.42 h 2.94 v 0.42 h 2.94 v 0.42 h 2.93 v 1.67 h 5.88 v 0.42 h 5.88 v 1.67 h 2.94 v 1.26 h 2.94 v 0.83 h 2.94 v 0.84 h 2.94 v 0.42 h 2.93 v 0.84 h 2.94 v 0.83 h 2.94 v 1.68 h 2.94 v 0.84 h 2.94 v 1.25 h 2.94 v 1.67 h 2.94 v 0.42 h 2.94 v 1.26 h 2.93 v 0.84 h 2.94 v 0.83 h 2.94 v 1.68 h 2.94 v 0.42 h 2.94 v 0.41 h 2.94 v 2.51 h 2.94 v 0.42 h 2.94 v 0.42 h 2.94 v 2.09 h 2.93 v 1.26 h 2.94 v 1.67 h 5.88 v 1.68 h 2.94 v 2.93 h 5.88 v 2.51 h 2.94 v 3.76 h 2.94 v 1.68 h 2.93 v 2.93 h 2.94 v 5.44 h 2.94 v 8.79 h 2.94 v 246.91 h 14.69"
         stroke="#00bb4e"
         id="path1633" /><path
         d="m 40.98,48.21 h 14.7 v 0.78 h 26.45 v 0.39 h 35.26 v 0.39 h 17.64 v 0.4 h 5.87 v 0.39 h 8.82 v 0.39 h 5.88 v 0.39 h 2.94 v 0.39 h 2.93 v 0.39 h 2.94 v 0.39 h 5.88 v 0.39 h 11.76 v 0.39 h 2.94 v 0.39 h 2.93 v 0.39 h 2.94 v 0.4 h 2.94 v 0.39 h 2.94 v 1.17 h 5.88 v 0.39 h 2.94 v 0.78 h 2.94 v 0.39 h 2.94 v 0.39 h 2.93 v 0.79 h 2.94 v 0.78 h 2.94 v 0.39 h 5.88 v 0.39 h 2.94 v 0.78 h 8.81 v 0.78 h 2.94 v 1.18 h 2.94 v 0.78 h 2.94 v 0.78 h 2.94 v 2.74 h 2.94 v 0.78 h 2.94 v 0.39 h 2.94 v 0.78 h 5.87 v 0.39 h 2.94 v 0.39 h 2.94 v 0.78 h 2.94 v 0.79 h 2.94 v 0.78 h 2.94 v 1.17 h 2.94 v 0.78 h 2.94 v 0.39 h 2.93 v 0.39 h 2.94 v 1.18 h 2.94 v 0.78 h 2.94 v 0.78 h 2.94 v 1.17 h 2.94 v 1.57 h 5.88 v 1.95 h 2.94 v 1.56 h 2.93 v 1.18 h 2.94 v 1.56 h 2.94 v 3.13 h 2.94 v 1.17 h 2.94 v 1.17 h 2.94 v 1.96 h 2.94 v 2.34 h 2.94 v 1.57 h 2.94 v 3.51 h 2.93 v 5.09 h 2.94 v 5.47 h 2.94 v 10.55 h 2.94 v 251.35 h 14.69"
         stroke="#00bf7d"
         id="path1635" /><path
         d="m 40.98,48.21 h 17.64 v 0.52 h 20.57 v 0.53 h 2.94 v 0.52 h 14.69 v 0.52 h 11.76 v 0.53 h 14.69 v 1.04 h 8.82 v 0.53 h 5.87 v 0.52 h 2.94 v 0.52 h 11.76 v 0.53 h 2.94 v 0.52 h 11.75 v 1.05 h 8.82 v 0.52 h 5.88 v 0.52 h 2.94 v 0.53 h 2.93 v 0.52 h 2.94 v 0.52 h 2.94 v 1.05 h 2.94 v 1.05 h 2.94 v 0.52 h 2.94 v 0.52 h 2.94 v 0.53 h 2.94 v 0.52 h 2.94 v 0.52 h 2.93 v 0.53 h 5.88 v 1.57 h 2.94 V 66 h 2.94 v 0.53 h 5.88 v 1.04 h 2.94 v 0.53 h 2.93 v 2.09 h 2.94 v 0.52 h 5.88 v 1.05 h 2.94 v 0.52 h 2.94 v 0.53 h 2.94 v 1.04 h 2.94 v 1.05 h 2.94 v 1.05 h 2.93 v 1.04 h 2.94 v 2.62 h 2.94 v 0.52 h 2.94 v 0.53 h 2.94 v 1.04 h 2.94 v 0.52 h 2.94 v 1.05 h 2.94 v 0.52 h 5.87 v 0.53 h 2.94 v 2.09 h 11.76 v 2.09 h 5.88 v 1.57 h 2.93 v 2.1 h 2.94 v 4.18 h 2.94 v 0.53 h 2.94 v 1.04 h 2.94 v 1.05 h 2.94 v 2.62 h 2.94 v 1.04 h 2.94 v 1.57 h 2.94 v 2.62 h 2.93 v 2.09 h 2.94 v 5.24 h 2.94 v 4.71 h 2.94 v 255.36 h 14.69"
         stroke="#00c1a3"
         id="path1637" /><path
         d="m 40.98,48.21 h 14.7 v 1.9 h 5.87 v 0.47 h 2.94 v 0.48 h 5.88 v 0.47 h 35.27 v 0.48 h 17.63 v 0.47 h 11.76 v 0.48 h 8.81 v 0.47 h 2.94 v 0.48 h 14.69 v 0.47 h 5.88 v 0.47 h 8.82 v 0.95 h 8.82 v 0.95 h 2.93 v 0.48 h 2.94 v 1.9 h 2.94 v 0.94 h 2.94 v 0.95 h 2.94 v 1.43 h 2.94 v 0.95 h 2.94 v 1.42 h 2.94 v 0.47 h 2.94 v 0.48 h 2.93 v 2.37 h 2.94 v 0.48 h 2.94 v 2.37 h 2.94 v 0.95 h 2.94 v 0.95 h 2.94 v 0.47 h 2.94 v 1.43 h 2.94 v 0.94 h 5.87 v 0.95 h 5.88 v 0.48 h 2.94 v 0.47 h 2.94 v 0.48 h 2.94 v 1.42 h 5.88 v 0.95 h 2.93 v 0.47 h 2.94 v 0.95 h 2.94 v 0.48 h 2.94 v 0.95 h 2.94 v 0.47 h 2.94 v 0.95 h 2.94 v 0.48 h 2.94 v 1.42 h 2.93 v 0.47 h 2.94 v 1.43 h 2.94 v 0.95 h 2.94 v 0.95 h 2.94 v 1.42 h 2.94 v 0.47 h 2.94 v 0.95 h 2.94 v 0.48 h 2.94 v 0.47 h 2.93 v 1.9 h 2.94 v 1.42 h 5.88 v 0.48 h 2.94 v 1.42 h 2.94 v 0.95 h 2.94 v 0.48 h 2.94 v 0.94 h 2.94 v 1.43 h 2.93 v 3.79 h 2.94 v 6.65 h 2.94 v 11.39 h 2.94 v 249.13 h 14.69"
         stroke="#00bfc4"
         id="path1639" /><path
         d="m 40.98,48.21 h 14.7 v 1 h 2.94 v 0.67 h 2.93 v 0.33 h 20.58 v 0.33 h 20.57 v 0.34 h 20.57 v 0.33 h 14.69 v 0.33 h 5.88 v 0.34 h 5.88 v 0.33 h 2.94 v 0.67 h 2.94 v 0.66 h 8.81 v 0.34 h 5.88 v 0.66 h 5.88 v 0.34 h 2.94 v 0.33 h 2.94 v 0.67 h 2.94 v 0.33 h 5.87 v 0.67 h 2.94 v 1 h 2.94 v 0.33 h 5.88 v 0.33 h 2.94 v 0.67 h 2.94 v 1 h 2.94 v 1.33 h 2.93 v 0.34 h 2.94 v 0.33 h 2.94 v 0.67 h 2.94 v 0.33 h 2.94 v 1 h 2.94 v 1.33 h 2.94 v 1 h 2.94 v 1 h 5.87 v 0.34 h 2.94 v 0.33 h 2.94 v 1.34 h 2.94 v 1 h 2.94 v 1 h 2.94 v 0.66 h 2.94 v 0.67 h 2.94 v 1.33 h 2.93 v 1 h 2.94 v 1 h 2.94 v 0.67 h 2.94 v 1.67 h 2.94 v 0.66 h 2.94 v 0.34 h 2.94 v 0.33 h 2.94 v 0.67 h 2.93 v 0.66 h 2.94 v 0.34 h 2.94 v 0.33 h 2.94 v 1.67 h 2.94 v 0.66 h 2.94 v 0.34 h 2.94 v 1 h 2.94 v 0.33 h 2.94 v 1.33 h 2.93 v 0.34 h 2.94 v 0.66 h 2.94 v 1.67 h 2.94 v 2.67 h 2.94 v 2.33 h 2.94 v 0.67 h 2.94 v 3.33 h 2.94 v 1.67 h 2.94 v 2.33 h 2.93 v 2 h 2.94 v 4.33 h 2.94 v 7.67 h 2.94 v 257.34 h 14.69"
         stroke="#00bae0"
         id="path1641" /><path
         d="m 40.98,48.21 h 14.7 v 0.76 h 11.75 v 0.38 h 2.94 v 0.38 h 29.39 v 0.76 h 5.88 v 0.38 h 14.69 v 0.38 h 17.63 v 0.76 h 20.58 v 0.76 h 2.93 v 0.38 h 8.82 v 0.38 h 5.88 v 0.38 h 2.94 v 0.76 h 8.81 v 0.76 h 5.88 v 0.38 h 2.94 v 1.52 h 2.94 v 1.9 h 2.94 v 0.38 h 2.94 v 2.28 h 2.94 v 0.38 h 2.94 v 0.38 h 2.93 v 0.76 h 2.94 v 0.38 h 2.94 v 0.38 h 2.94 v 1.14 h 2.94 v 0.76 h 2.94 v 1.14 h 2.94 v 0.76 h 2.94 v 0.38 h 2.93 v 1.14 h 2.94 v 1.52 h 2.94 v 0.76 h 2.94 v 1.14 h 2.94 v 0.38 h 2.94 v 0.38 h 2.94 v 0.76 h 2.94 v 0.38 h 2.94 v 0.38 h 2.93 v 1.52 h 2.94 v 0.38 h 2.94 v 0.38 h 2.94 v 1.52 h 2.94 v 0.38 h 2.94 v 0.38 h 2.94 v 1.52 h 2.94 v 1.52 h 2.93 v 0.76 h 2.94 v 0.38 h 2.94 v 1.52 h 2.94 v 1.14 h 2.94 v 1.14 h 2.94 v 1.52 h 2.94 v 2.28 h 2.94 v 0.76 h 2.94 v 1.14 h 2.93 v 1.9 h 2.94 v 0.76 h 2.94 v 2.28 h 2.94 v 1.9 h 2.94 v 2.28 h 2.94 v 1.9 h 2.94 v 1.14 h 2.94 v 4.18 h 2.94 v 4.17 h 2.93 v 3.04 h 2.94 v 3.42 h 2.94 v 11.02 h 2.94 v 242.8 h 14.69"
         stroke="#00b0f6"
         id="path1643" /><path
         d="m 40.98,48.21 h 14.7 v 0.88 h 2.94 v 0.89 h 2.93 v 0.35 h 2.94 v 0.53 h 2.94 v 0.18 h 2.94 v 0.35 h 2.94 v 0.36 h 2.94 v 0.17 h 2.94 v 0.18 h 20.57 v 0.35 h 23.51 v 0.18 h 8.82 v 0.35 h 8.81 v 0.53 h 5.88 v 0.18 h 2.94 v 0.18 h 2.94 v 0.7 h 5.88 v 0.53 h 2.93 v 0.18 h 2.94 v 0.35 h 2.94 v 0.18 h 2.94 v 0.18 h 2.94 v 0.53 h 2.94 v 0.53 h 2.94 v 0.35 h 2.94 v 0.18 h 2.94 v 0.17 h 2.93 v 0.53 h 2.94 v 0.36 h 2.94 v 0.88 h 2.94 v 1.24 h 2.94 v 0.7 h 2.94 v 0.53 h 2.94 v 0.71 h 2.94 v 0.35 h 2.94 v 0.18 h 2.93 v 0.71 h 2.94 v 0.17 h 2.94 v 0.71 h 2.94 v 0.88 h 2.94 v 0.36 h 2.94 v 0.53 h 2.94 v 0.53 h 2.94 v 1.41 h 2.93 v 0.71 h 2.94 v 1.06 h 2.94 v 0.71 h 2.94 v 1.06 h 2.94 v 0.7 h 2.94 v 1.06 h 2.94 v 0.36 h 2.94 v 0.17 h 2.94 v 0.89 h 2.93 v 0.7 h 2.94 v 0.36 h 2.94 v 0.7 h 2.94 v 1.06 h 2.94 v 0.53 h 2.94 v 0.89 h 2.94 v 1.23 h 2.94 v 1.06 h 2.93 v 0.89 h 2.94 v 0.7 h 2.94 v 1.24 h 2.94 v 1.24 h 2.94 v 1.23 h 2.94 v 1.07 h 2.94 v 1.23 h 2.94 v 1.42 h 2.94 v 1.23 h 2.93 v 1.42 h 2.94 v 1.41 h 2.94 v 2.47 h 2.94 v 2.12 h 2.94 v 2.3 h 2.94 v 2.12 h 2.94 v 1.24 h 2.94 v 2.65 h 2.94 v 4.42 h 2.93 v 2.65 h 2.94 v 4.77 h 2.94 v 10.6 h 2.94 v 244.02 h 14.69"
         stroke="#35a2ff"
         id="path1645" /><path
         d="m 40.98,48.21 h 14.7 v 0.34 h 2.94 v 0.33 h 2.93 v 0.34 h 2.94 v 0.67 h 2.94 v 0.33 h 17.64 v 0.34 h 11.75 v 0.33 h 5.88 v 0.34 h 20.57 v 0.67 h 11.76 v 0.33 h 2.93 v 0.34 h 5.88 v 0.67 h 5.88 v 0.67 h 2.94 v 0.33 h 2.94 v 0.34 h 2.94 v 0.33 h 5.87 v 0.34 h 5.88 v 0.67 h 5.88 v 1.34 h 2.94 v 0.33 h 2.94 v 0.34 h 2.94 v 1.34 h 2.93 v 1 h 2.94 v 0.34 h 2.94 v 1.34 h 2.94 v 0.33 h 2.94 v 0.67 h 2.94 v 1.34 h 2.94 v 2.35 h 2.94 v 1 h 2.94 v 0.34 h 2.93 v 0.33 h 5.88 v 0.34 h 2.94 v 0.67 h 2.94 v 2.01 h 2.94 v 0.34 h 2.94 v 0.67 h 2.94 v 0.33 h 2.93 v 0.67 h 2.94 v 0.34 h 2.94 v 0.33 h 2.94 v 0.34 h 2.94 v 1 h 2.94 v 0.34 h 2.94 v 0.33 h 2.94 v 0.34 h 2.94 v 0.33 h 2.93 v 0.34 h 2.94 v 1 h 2.94 v 1.34 h 2.94 v 1.01 h 2.94 v 0.67 h 2.94 v 1.67 h 2.94 v 1.68 h 2.94 v 1 h 2.93 v 1.68 h 2.94 v 1.67 h 2.94 v 1.01 h 2.94 v 0.67 h 2.94 v 1.34 h 2.94 v 0.67 h 2.94 v 0.67 h 2.94 v 1.34 h 2.94 v 2.34 h 2.93 v 1.01 h 2.94 v 2.68 h 2.94 v 1.34 h 2.94 v 1.34 h 2.94 v 1.34 h 2.94 v 1.34 h 2.94 v 1.68 h 2.94 v 1.67 h 2.94 v 2.35 h 2.93 v 3.68 h 2.94 v 7.04 h 2.94 v 9.71 h 2.94 v 242.25 h 14.69"
         stroke="#9590ff"
         id="path1647" /><path
         d="m 40.98,48.21 h 14.7 v 0.33 h 2.94 v 0.67 h 2.93 v 0.33 h 2.94 v 0.67 h 2.94 v 0.33 h 2.94 v 0.33 h 2.94 v 0.33 h 17.63 v 0.67 h 5.88 v 0.99 h 2.94 v 0.34 h 2.94 v 0.66 h 8.81 v 0.33 h 11.76 v 0.34 h 2.94 v 0.33 h 2.94 v 0.66 h 2.94 v 0.33 h 2.94 v 0.34 h 2.93 v 0.33 h 8.82 v 0.33 h 2.94 v 0.33 h 5.88 v 0.34 h 2.94 v 0.33 h 2.93 v 0.66 h 2.94 v 0.34 h 5.88 v 1.66 h 2.94 v 0.66 h 2.94 v 1.33 h 2.94 v 0.33 h 2.94 v 1.33 h 2.94 v 0.33 h 2.93 v 1 h 2.94 v 0.33 h 2.94 v 1 h 2.94 v 0.67 h 2.94 v 0.33 h 2.94 v 1 h 2.94 v 0.66 h 2.94 v 1 h 5.87 v 0.66 h 2.94 v 0.33 h 2.94 v 0.34 h 2.94 v 0.99 h 2.94 v 0.67 h 2.94 v 1.33 h 2.94 v 0.33 h 2.94 v 0.33 h 2.93 v 1 h 2.94 v 1 h 2.94 v 0.66 h 2.94 v 0.66 h 2.94 v 0.67 h 2.94 v 1 h 2.94 v 0.66 h 2.94 v 0.67 h 2.94 v 0.99 h 2.93 v 1.33 h 2.94 v 1 h 2.94 v 1.33 h 2.94 v 0.66 h 2.94 v 1 h 2.94 v 2.99 h 2.94 v 0.67 h 2.94 v 0.99 h 2.93 v 0.67 h 2.94 v 0.99 h 2.94 v 0.67 h 2.94 v 1 h 2.94 v 0.33 h 2.94 v 0.66 h 2.94 v 2.33 h 2.94 v 1.66 h 2.94 v 1.99 h 2.93 v 1.33 h 2.94 v 2 h 2.94 v 0.33 h 2.94 v 3.32 h 2.94 v 1.66 h 2.94 v 1.67 h 2.94 v 1.99 h 2.94 v 1.99 h 2.94 v 3.33 h 2.93 v 4.32 h 2.94 v 4.32 h 2.94 v 12.63 h 2.94 v 232.29 h 14.69"
         stroke="#c77cff"
         id="path1649" /><path
         d="m 40.98,48.21 h 14.7 v 1.17 h 2.94 v 0.79 h 17.63 v 0.39 h 5.88 v 0.78 H 88 v 0.39 h 2.94 v 0.78 h 2.94 v 0.78 h 8.82 v 0.78 h 20.57 v 0.4 h 2.94 v 0.78 h 5.88 v 1.17 h 2.94 v 0.78 h 2.93 v 0.39 h 2.94 v 0.78 h 2.94 v 0.79 h 5.88 v 0.78 h 2.94 v 1.56 h 2.94 v 0.39 h 2.94 v 0.39 h 2.93 v 1.18 h 2.94 v 0.39 h 2.94 v 0.39 h 2.94 v 1.17 h 2.94 v 2.35 h 2.94 v 0.78 h 2.94 v 0.39 h 2.94 v 0.78 h 2.94 v 1.56 h 2.93 v 0.79 h 2.94 v 1.17 h 2.94 v 0.78 h 2.94 v 0.78 h 2.94 v 0.78 h 2.94 v 1.18 h 2.94 v 0.78 h 2.94 v 1.17 h 2.94 v 0.39 h 2.93 v 1.17 h 5.88 v 0.4 h 2.94 v 0.39 h 2.94 v 1.56 h 2.94 V 83 h 2.94 v 1.17 h 2.94 v 1.57 h 2.93 v 1.95 h 2.94 v 0.39 h 2.94 v 1.57 h 2.94 v 1.56 h 2.94 v 1.56 h 2.94 v 2.35 h 2.94 v 1.56 h 2.94 v 0.78 h 2.94 v 0.4 h 2.93 v 2.34 h 2.94 v 1.17 h 2.94 v 1.18 h 2.94 v 0.39 h 2.94 v 1.17 h 2.94 v 1.56 h 2.94 v 1.57 h 2.94 v 1.95 h 2.93 v 1.56 h 2.94 v 2.35 h 2.94 v 3.13 h 2.94 v 2.34 h 2.94 v 1.57 h 2.94 v 3.91 h 2.94 v 2.34 h 2.94 v 2.74 h 2.94 v 3.91 h 2.93 v 1.56 h 2.94 v 2.74 h 2.94 v 2.73 h 2.94 v 2.35 h 2.94 v 4.69 h 2.94 v 3.13 h 2.94 v 1.17 h 2.94 v 3.13 h 2.94 v 4.69 h 2.93 v 4.3 h 2.94 v 5.86 h 2.94 v 9.77 h 2.94 v 195.06 h 14.69"
         stroke="#e76bf3"
         id="path1651" /><path
         d="m 40.98,48.21 h 49.96 v 0.54 h 5.88 v 0.53 h 26.45 v 0.54 h 8.82 v 0.53 h 5.87 v 0.54 h 2.94 v 0.53 h 2.94 v 0.54 h 5.88 v 1.07 h 2.94 v 1.6 h 2.94 v 1.61 h 2.94 v 0.54 h 5.87 v 1.07 h 2.94 v 0.53 h 2.94 v 2.68 h 5.88 v 0.53 h 2.94 v 1.61 h 2.94 v 1.61 h 2.94 v 2.14 h 2.93 v 2.14 h 2.94 v 2.68 h 2.94 v 1.07 h 5.88 v 1.6 h 2.94 v 2.14 h 2.94 v 1.07 h 2.94 v 1.07 h 2.94 v 0.54 h 2.93 v 1.07 h 2.94 v 1.07 h 2.94 v 1.07 h 2.94 v 1.61 h 2.94 v 1.07 h 2.94 v 1.6 h 2.94 v 0.54 h 2.94 v 4.28 h 2.93 v 2.68 h 2.94 v 1.07 h 2.94 v 1.07 h 2.94 V 98 h 2.94 v 2.14 h 2.94 v 1.6 h 2.94 v 1.61 h 2.94 v 1.07 h 5.87 v 1.61 h 2.94 v 0.53 h 2.94 v 3.21 h 2.94 v 1.07 h 2.94 v 2.68 h 2.94 v 1.07 h 2.94 v 1.07 h 2.94 v 2.68 h 2.93 v 1.07 h 2.94 v 1.6 h 2.94 v 1.08 h 2.94 v 1.6 h 2.94 v 2.68 h 2.94 v 1.07 h 2.94 v 1.07 h 2.94 v 1.07 h 2.94 v 2.68 h 2.93 v 1.07 h 2.94 v 1.6 h 2.94 v 4.29 h 2.94 v 3.74 h 2.94 v 1.61 h 2.94 v 2.14 h 2.94 v 2.68 h 2.94 v 3.74 h 2.94 v 3.75 h 2.93 v 5.35 h 2.94 v 5.36 h 2.94 v 12.31 h 2.94 v 194.32 h 14.69"
         stroke="#fa62db"
         id="path1653" /><path
         d="m 40.98,48.21 h 23.51 v 0.72 h 35.27 v 0.72 h 5.88 v 0.36 h 8.81 v 0.36 h 2.94 v 0.37 h 14.7 v 0.36 h 5.87 v 0.36 h 2.94 v 1.08 h 5.88 v 0.72 h 5.88 v 0.72 h 5.88 v 0.72 h 5.87 v 1.08 h 2.94 v 1.45 h 2.94 v 1.44 h 2.94 v 1.44 h 2.94 v 1.44 h 2.94 v 2.17 h 2.94 v 1.08 h 2.94 v 0.36 h 2.93 v 1.08 h 2.94 v 1.45 h 2.94 v 0.72 h 2.94 v 0.72 h 2.94 v 1.08 h 2.94 v 0.72 h 2.94 v 0.72 h 2.94 v 0.72 h 2.94 v 0.36 h 2.93 v 0.36 h 2.94 v 1.09 h 2.94 v 0.36 h 2.94 v 0.72 h 2.94 v 0.36 h 2.94 v 1.08 h 2.94 v 1.08 h 2.94 v 1.45 h 5.87 v 1.8 h 2.94 v 1.08 h 2.94 v 0.72 h 2.94 v 1.8 h 2.94 v 1.09 h 2.94 v 0.72 h 2.94 v 0.36 h 2.94 v 0.72 h 2.93 v 0.72 h 2.94 v 0.72 h 2.94 v 0.36 h 2.94 v 2.53 h 2.94 v 1.08 h 2.94 v 1.08 h 2.94 v 2.16 h 2.94 v 1.45 h 2.93 v 1.08 h 2.94 v 1.44 h 2.94 v 1.8 h 2.94 v 1.09 h 2.94 v 1.44 h 2.94 v 0.36 h 2.94 v 2.88 h 2.94 v 1.09 h 2.94 v 0.72 h 2.93 v 1.08 h 2.94 v 3.61 h 2.94 v 1.44 h 2.94 v 1.8 h 2.94 v 2.89 h 2.94 v 1.8 h 2.94 v 2.16 h 2.94 v 2.17 h 2.94 v 2.88 h 2.93 v 4.33 h 2.94 v 7.21 h 2.94 v 10.82 h 2.94 v 222.51 h 14.69"
         stroke="#ff62bc"
         id="path1655" /><path
         d="m 40.98,48.21 h 14.7 v 0.56 h 20.57 v 1.13 h 8.82 v 0.56 h 11.75 v 1.13 h 5.88 v 0.56 h 29.39 v 0.57 h 2.94 v 0.56 h 2.93 v 0.56 h 5.88 v 0.56 h 2.94 v 0.57 h 2.94 v 0.56 h 2.94 v 1.13 h 5.88 v 1.12 h 2.93 v 1.13 h 8.82 v 0.56 h 2.94 v 0.57 h 5.88 v 2.25 h 2.94 v 1.12 h 2.94 v 0.57 h 2.93 v 1.12 h 2.94 v 0.57 h 2.94 v 0.56 h 2.94 v 0.56 h 2.94 v 1.13 h 2.94 v 0.56 h 2.94 v 1.13 h 2.94 v 1.12 h 2.94 v 1.13 h 2.93 v 1.13 h 8.82 v 1.68 h 2.94 v 2.26 h 2.94 v 0.56 h 5.88 v 1.13 h 2.93 v 1.12 h 2.94 v 2.82 h 2.94 v 1.12 h 2.94 v 1.69 h 5.88 v 1.69 h 2.94 v 0.56 h 2.94 v 0.57 h 2.94 v 3.38 h 2.93 v 2.81 h 2.94 v 1.13 h 2.94 v 4.5 h 2.94 v 1.13 h 2.94 v 1.69 h 2.94 v 0.56 h 5.88 v 0.56 h 2.93 v 0.57 h 2.94 v 1.12 h 2.94 v 0.57 h 2.94 v 1.68 h 2.94 v 1.13 h 2.94 v 1.69 h 5.88 v 3.94 h 2.94 v 1.69 h 2.93 v 3.38 h 2.94 v 1.13 h 2.94 v 0.56 h 2.94 v 2.81 h 2.94 v 1.13 h 2.94 v 2.81 h 2.94 v 1.69 h 2.94 v 5.07 h 2.94 v 3.94 h 2.93 v 6.76 h 2.94 v 6.19 h 2.94 v 12.95 h 2.94 v 209.46 h 14.69"
         stroke="#ff6a98"
         id="path1657" /></g></g><path
     d="m 393.17183,84.079026 h 3.33077"
     fill="none"
     stroke="#f8766d"
     stroke-linejoin="round"
     stroke-miterlimit="10"
     stroke-width="1.07"
     id="path1749-8-8"
     style="fill:none;stroke:#000000;stroke-width:0.7;stroke-dasharray:none;stroke-opacity:1" /><path
     d="M 396.49864,84.081646 V 178.27166"
     fill="none"
     stroke="#f8766d"
     stroke-linejoin="round"
     stroke-miterlimit="10"
     stroke-width="1.07"
     id="path1749-8-5-6"
     style="fill:none;stroke:#000000;stroke-width:0.7;stroke-dasharray:none;stroke-opacity:1"
     sodipodi:nodetypes="cc" /><path
     d="m 393.40879,178.07615 h 3.33077"
     fill="none"
     stroke="#f8766d"
     stroke-linejoin="round"
     stroke-miterlimit="10"
     stroke-width="1.07"
     id="path1749-8-3-2"
     style="fill:none;stroke:#000000;stroke-width:0.7;stroke-dasharray:none;stroke-opacity:1" /><text
     transform="scale(0.99952013,1.0004801)"
     x="400.10919"
     y="131.1456"
     xml:space="preserve"
     id="text2029-1-5"
     style="font-size:8.67967px;font-family:Helvetica;fill:#000000;stroke-width:1.33333"><tspan
       sodipodi:role="line"
       id="tspan5030"
       x="400.10919"
       y="131.1456"><tspan
         stroke-width="1.33333"
         id="tspan2027-7-1">Non-CPR</tspan></tspan><tspan
       sodipodi:role="line"
       id="tspan5032"
       x="400.10919"
       y="141.99519">Bacteria</tspan></text><path
     d="m 134.29211,228.00863 h 3.33077"
     fill="none"
     stroke="#f8766d"
     stroke-linejoin="round"
     stroke-miterlimit="10"
     stroke-width="1.07"
     id="path1749-8"
     style="fill:none;stroke:#000000;stroke-width:0.7;stroke-dasharray:none;stroke-opacity:1" /><path
     d="m 137.83442,227.88194 v 12.07795"
     fill="none"
     stroke="#f8766d"
     stroke-linejoin="round"
     stroke-miterlimit="10"
     stroke-width="1.07"
     id="path1749-8-5"
     style="fill:none;stroke:#000000;stroke-width:0.7;stroke-dasharray:none;stroke-opacity:1"
     sodipodi:nodetypes="cc" /><path
     d="m 134.31356,239.76437 h 3.33077"
     fill="none"
     stroke="#f8766d"
     stroke-linejoin="round"
     stroke-miterlimit="10"
     stroke-width="1.07"
     id="path1749-8-3"
     style="fill:none;stroke:#000000;stroke-width:0.7;stroke-dasharray:none;stroke-opacity:1" /><path
     d="M 54.638634,485.4544 V 7.319684"
     fill="none"
     stroke="#000000"
     stroke-linejoin="round"
     stroke-miterlimit="10"
     stroke-width="1.42663"
     id="path1663" /><g
     fill="#4d4d4d"
     font-family="Helvetica"
     font-size="9px"
     id="g1685"
     transform="matrix(1.3333,0,0,-1.3333,0,528)"><text
       transform="matrix(1,0,0,-1,18.54,44.98)"
       xml:space="preserve"
       id="text1667"><tspan
         x="0 5.0040002 7.506 12.51"
         y="0"
         id="tspan1665">0.00</tspan></text><text
       transform="matrix(1,0,0,-1,18.54,126.48)"
       xml:space="preserve"
       id="text1671"><tspan
         x="0 5.0040002 7.506 12.51"
         y="0"
         id="tspan1669">0.25</tspan></text><text
       transform="matrix(1,0,0,-1,18.54,207.98)"
       xml:space="preserve"
       id="text1675"><tspan
         x="0 5.0040002 7.506 12.51"
         y="0"
         id="tspan1673">0.50</tspan></text><text
       transform="matrix(1,0,0,-1,18.54,289.49)"
       xml:space="preserve"
       id="text1679"><tspan
         x="0 5.0040002 7.506 12.51"
         y="0"
         id="tspan1677">0.75</tspan></text><text
       transform="matrix(1,0,0,-1,18.54,370.99)"
       xml:space="preserve"
       id="text1683"><tspan
         x="0 5.0040002 7.506 12.51"
         y="0"
         id="tspan1681">1.00</tspan></text></g><g
     fill="none"
     stroke="#333333"
     stroke-linejoin="round"
     stroke-miterlimit="10"
     stroke-width="1.07"
     id="g1697"
     transform="matrix(1.3333,0,0,-1.3333,0,528)"><path
       d="m 38.24,48.21 h 2.74"
       id="path1687" /><path
       d="m 38.24,129.71 h 2.74"
       id="path1689" /><path
       d="m 38.24,211.22 h 2.74"
       id="path1691" /><path
       d="m 38.24,292.72 h 2.74"
       id="path1693" /><path
       d="m 38.24,374.22 h 2.74"
       id="path1695" /></g><path
     d="M 54.638634,485.4544 H 485.65452"
     fill="none"
     stroke="#000000"
     stroke-linejoin="round"
     stroke-miterlimit="10"
     stroke-width="1.42663"
     id="path1699" /><g
     fill="none"
     stroke="#333333"
     stroke-linejoin="round"
     stroke-miterlimit="10"
     stroke-width="1.07"
     id="g1711"
     transform="matrix(1.3333,0,0,-1.3333,0,528)"><path
       d="m 55.68,29.17 v 2.74"
       id="path1701" /><path
       d="m 129.15,29.17 v 2.74"
       id="path1703" /><path
       d="m 202.62,29.17 v 2.74"
       id="path1705" /><path
       d="m 276.09,29.17 v 2.74"
       id="path1707" /><path
       d="m 349.56,29.17 v 2.74"
       id="path1709" /></g><g
     fill="#4d4d4d"
     font-family="Helvetica"
     font-size="9px"
     id="g1733"
     transform="matrix(1.3333,0,0,-1.3333,0,528)"><text
       transform="matrix(1,0,0,-1,46.92,20.52)"
       xml:space="preserve"
       id="text1715"><tspan
         x="0 5.0040002 7.506 12.51"
         y="0"
         id="tspan1713">0.00</tspan></text><text
       transform="matrix(1,0,0,-1,120.39,20.52)"
       xml:space="preserve"
       id="text1719"><tspan
         x="0 5.0040002 7.506 12.51"
         y="0"
         id="tspan1717">0.25</tspan></text><text
       transform="matrix(1,0,0,-1,193.86,20.52)"
       xml:space="preserve"
       id="text1723"><tspan
         x="0 5.0040002 7.506 12.51"
         y="0"
         id="tspan1721">0.50</tspan></text><text
       transform="matrix(1,0,0,-1,267.33,20.52)"
       xml:space="preserve"
       id="text1727"><tspan
         x="0 5.0040002 7.506 12.51"
         y="0"
         id="tspan1725">0.75</tspan></text><text
       transform="matrix(1,0,0,-1,340.8,20.52)"
       xml:space="preserve"
       id="text1731"><tspan
         x="0 5.0040002 7.506 12.51"
         y="0"
         id="tspan1729">1.00</tspan></text></g><text
     fill="#000000"
     font-family="Helvetica"
     font-size="14.6663px"
     xml:space="preserve"
     id="text1737"
     x="192.48866"
     y="517.46692"
     style="stroke-width:1.3333"><tspan
       x="192.48866"
       y="517.46692"
       id="tspan1735"
       style="stroke-width:1.3333">aBayes Branch Support</tspan></text><text
     transform="rotate(-90)"
     fill="#000000"
     font-family="Helvetica"
     font-size="14.6663px"
     xml:space="preserve"
     id="text1741"
     x="-266.35321"
     y="17.839554"
     style="stroke-width:1.3333"><tspan
       x="-266.35321 -256.5708 -245.98172 -235.39265"
       y="17.839554"
       id="tspan1739"
       style="stroke-width:1.3333">ECDF</tspan></text><path
     d="m 500.26749,494.61417 h 68.41163 V -1.85342 h -68.41163 z"
     fill="#ffffff"
     id="path1743"
     style="stroke-width:1.3333" /><text
     fill="#000000"
     font-family="Helvetica"
     font-size="14.6663px"
     xml:space="preserve"
     id="text1747"
     x="507.57397"
     y="17.599426"
     style="stroke-width:1.3333"><tspan
       x="507.57397 516.76978 524.92419 530.39471 534.47198 537.72791 541.80511 545.06104 553.21552"
       y="17.599426"
       id="tspan1745"
       style="stroke-width:1.3333">Partition</tspan></text><path
     d="m 509.88059,38.038916 h 18.43953"
     fill="none"
     stroke="#f8766d"
     stroke-linejoin="round"
     stroke-miterlimit="10"
     stroke-width="1.42663"
     id="path1749" /><path
     d="m 509.88059,61.07834 h 18.43953"
     fill="none"
     stroke="#ea8331"
     stroke-linejoin="round"
     stroke-miterlimit="10"
     stroke-width="1.42663"
     id="path1751" /><path
     d="m 509.88059,84.117764 h 18.43953"
     fill="none"
     stroke="#d89000"
     stroke-linejoin="round"
     stroke-miterlimit="10"
     stroke-width="1.42663"
     id="path1753" /><path
     d="m 509.88059,107.15719 h 18.43953"
     fill="none"
     stroke="#c09b00"
     stroke-linejoin="round"
     stroke-miterlimit="10"
     stroke-width="1.42663"
     id="path1755" /><path
     d="m 509.88059,130.19661 h 18.43953"
     fill="none"
     stroke="#a3a500"
     stroke-linejoin="round"
     stroke-miterlimit="10"
     stroke-width="1.42663"
     id="path1757" /><path
     d="m 509.88059,153.23604 h 18.43953"
     fill="none"
     stroke="#7cae00"
     stroke-linejoin="round"
     stroke-miterlimit="10"
     stroke-width="1.42663"
     id="path1759" /><path
     d="m 509.88059,176.27546 h 18.43953"
     fill="none"
     stroke="#39b600"
     stroke-linejoin="round"
     stroke-miterlimit="10"
     stroke-width="1.42663"
     id="path1761" /><path
     d="m 509.88059,199.31488 h 18.43953"
     fill="none"
     stroke="#00bb4e"
     stroke-linejoin="round"
     stroke-miterlimit="10"
     stroke-width="1.42663"
     id="path1763" /><path
     d="m 509.88059,222.35431 h 18.43953"
     fill="none"
     stroke="#00bf7d"
     stroke-linejoin="round"
     stroke-miterlimit="10"
     stroke-width="1.42663"
     id="path1765" /><path
     d="m 509.88059,245.39373 h 18.43953"
     fill="none"
     stroke="#00c1a3"
     stroke-linejoin="round"
     stroke-miterlimit="10"
     stroke-width="1.42663"
     id="path1767" /><path
     d="m 509.88059,268.43316 h 18.43953"
     fill="none"
     stroke="#00bfc4"
     stroke-linejoin="round"
     stroke-miterlimit="10"
     stroke-width="1.42663"
     id="path1769" /><path
     d="m 509.88059,291.47258 h 18.43953"
     fill="none"
     stroke="#00bae0"
     stroke-linejoin="round"
     stroke-miterlimit="10"
     stroke-width="1.42663"
     id="path1771" /><g
     transform="matrix(1.3333,0,0,-1.3333,0,506.00055)"
     fill="none"
     stroke-linejoin="round"
     stroke-miterlimit="10"
     stroke-width="1.07"
     id="g1787"><path
       d="m 382.42,142.84 h 13.83"
       stroke="#35a2ff"
       id="path1773" /><path
       d="m 382.42,125.56 h 13.83"
       stroke="#9590ff"
       id="path1775" /><path
       d="m 382.42,108.28 h 13.83"
       stroke="#c77cff"
       id="path1777" /><path
       d="m 382.42,91 h 13.83"
       stroke="#e76bf3"
       id="path1779" /><path
       d="m 382.42,73.72 h 13.83"
       stroke="#fa62db"
       id="path1781" /><path
       d="m 382.42,56.44 h 13.83"
       stroke="#ff62bc"
       id="path1783" /><path
       d="m 382.42,39.16 h 13.83"
       stroke="#ff6a98"
       id="path1785" /></g><text
     fill="#000000"
     font-family="Helvetica"
     font-size="11.9997px"
     xml:space="preserve"
     id="text1791"
     x="537.91986"
     y="42.345474"
     style="stroke-width:1.3333"><tspan
       x="537.91986"
       y="42.345474"
       id="tspan1789"
       style="stroke-width:1.3333">0</tspan></text><text
     fill="#000000"
     font-family="Helvetica"
     font-size="11.9997px"
     xml:space="preserve"
     id="text1795"
     x="537.91986"
     y="65.384895"
     style="stroke-width:1.3333"><tspan
       x="537.91986"
       y="65.384895"
       id="tspan1793"
       style="stroke-width:1.3333">1</tspan></text><text
     fill="#000000"
     font-family="Helvetica"
     font-size="11.9997px"
     xml:space="preserve"
     id="text1799"
     x="537.91986"
     y="88.424324"
     style="stroke-width:1.3333"><tspan
       x="537.91986"
       y="88.424324"
       id="tspan1797"
       style="stroke-width:1.3333">2</tspan></text><text
     fill="#000000"
     font-family="Helvetica"
     font-size="11.9997px"
     xml:space="preserve"
     id="text1803"
     x="537.91986"
     y="111.46375"
     style="stroke-width:1.3333"><tspan
       x="537.91986"
       y="111.46375"
       id="tspan1801"
       style="stroke-width:1.3333">3</tspan></text><text
     fill="#000000"
     font-family="Helvetica"
     font-size="11.9997px"
     xml:space="preserve"
     id="text1807"
     x="537.91986"
     y="134.50317"
     style="stroke-width:1.3333"><tspan
       x="537.91986"
       y="134.50317"
       id="tspan1805"
       style="stroke-width:1.3333">4</tspan></text><text
     fill="#000000"
     font-family="Helvetica"
     font-size="11.9997px"
     xml:space="preserve"
     id="text1811"
     x="537.91986"
     y="157.54259"
     style="stroke-width:1.3333"><tspan
       x="537.91986"
       y="157.54259"
       id="tspan1809"
       style="stroke-width:1.3333">5</tspan></text><text
     fill="#000000"
     font-family="Helvetica"
     font-size="11.9997px"
     xml:space="preserve"
     id="text1815"
     x="537.91986"
     y="180.58202"
     style="stroke-width:1.3333"><tspan
       x="537.91986"
       y="180.58202"
       id="tspan1813"
       style="stroke-width:1.3333">6</tspan></text><text
     fill="#000000"
     font-family="Helvetica"
     font-size="11.9997px"
     xml:space="preserve"
     id="text1819"
     x="537.91986"
     y="203.62144"
     style="stroke-width:1.3333"><tspan
       x="537.91986"
       y="203.62144"
       id="tspan1817"
       style="stroke-width:1.3333">7</tspan></text><text
     fill="#000000"
     font-family="Helvetica"
     font-size="11.9997px"
     xml:space="preserve"
     id="text1823"
     x="537.91986"
     y="226.66087"
     style="stroke-width:1.3333"><tspan
       x="537.91986"
       y="226.66087"
       id="tspan1821"
       style="stroke-width:1.3333">8</tspan></text><text
     fill="#000000"
     font-family="Helvetica"
     font-size="11.9997px"
     xml:space="preserve"
     id="text1827"
     x="537.91986"
     y="249.70029"
     style="stroke-width:1.3333"><tspan
       x="537.91986"
       y="249.70029"
       id="tspan1825"
       style="stroke-width:1.3333">9</tspan></text><text
     fill="#000000"
     font-family="Helvetica"
     font-size="11.9997px"
     xml:space="preserve"
     id="text1831"
     x="537.91986"
     y="272.73972"
     style="stroke-width:1.3333"><tspan
       x="537.91986 544.59174"
       y="272.73972"
       id="tspan1829"
       style="stroke-width:1.3333">10</tspan></text><text
     fill="#000000"
     font-family="Helvetica"
     font-size="11.9997px"
     xml:space="preserve"
     id="text1835"
     x="537.91986"
     y="295.77914"
     style="stroke-width:1.3333"><tspan
       x="537.91986 544.59174"
       y="295.77914"
       id="tspan1833"
       style="stroke-width:1.3333">11</tspan></text><g
     transform="matrix(1.3333,0,0,-1.3333,0,506.00055)"
     fill="#000000"
     font-family="Helvetica"
     font-size="9px"
     id="g1865"><text
       transform="matrix(1,0,0,-1,403.45,139.61)"
       xml:space="preserve"
       id="text1839"><tspan
         x="0 5.0040002"
         y="0"
         id="tspan1837">13</tspan></text><text
       transform="matrix(1,0,0,-1,403.45,122.33)"
       xml:space="preserve"
       id="text1843"><tspan
         x="0 5.0040002"
         y="0"
         id="tspan1841">14</tspan></text><text
       transform="matrix(1,0,0,-1,403.45,105.05)"
       xml:space="preserve"
       id="text1847"><tspan
         x="0 5.0040002"
         y="0"
         id="tspan1845">15</tspan></text><text
       transform="matrix(1,0,0,-1,403.45,87.77)"
       xml:space="preserve"
       id="text1851"><tspan
         x="0 5.0040002"
         y="0"
         id="tspan1849">16</tspan></text><text
       transform="matrix(1,0,0,-1,403.45,70.49)"
       xml:space="preserve"
       id="text1855"><tspan
         x="0 5.0040002"
         y="0"
         id="tspan1853">17</tspan></text><text
       transform="matrix(1,0,0,-1,403.45,53.21)"
       xml:space="preserve"
       id="text1859"><tspan
         x="0 5.0040002"
         y="0"
         id="tspan1857">18</tspan></text><text
       transform="matrix(1,0,0,-1,403.45,35.93)"
       xml:space="preserve"
       id="text1863"><tspan
         x="0 5.0040002"
         y="0"
         id="tspan1861">19</tspan></text></g><g
     fill="none"
     stroke-miterlimit="10"
     stroke-width="1.3333"
     id="g1879"><path
       d="m168.37 120.39h-61.437v57.287"
       clip-path="url(#clipPath3111)"
       stroke="#c77cff"
       id="path1869" /><path
       d="m229.81 179.19h-15.361"
       clip-path="url(#clipPath3099)"
       stroke="#00bfc4"
       id="path1871" /><path
       d="m306.61 115.87h-138.24v4.5226"
       clip-path="url(#clipPath3087)"
       stroke="#7cae00"
       id="path1873" /><path
       d="m275.89 143.01h-92.159v13.568"
       clip-path="url(#clipPath3075)"
       stroke="#00bb4e"
       id="path1875" /><path
       d="m368.05 88.733h-199.68v31.658"
       clip-path="url(#clipPath3063)"
       stroke="#ea8331"
       id="path1877" /></g><path
     d="m291.25 143.01h-15.361"
     clip-path="url(#clipPath3051)"
     fill="#39b600"
     stroke="#39b600"
     stroke-miterlimit="10"
     stroke-width="1.3333"
     id="path1881" /><g
     fill="none"
     stroke-miterlimit="10"
     stroke-width="1.3333"
     id="g1895"><path
       d="m321.97 124.91h-15.358v-9.0453"
       clip-path="url(#clipPath3039)"
       stroke="#a3a500"
       id="path1883" /><path
       d="m137.65 215.37h-30.719v-37.689"
       clip-path="url(#clipPath3027)"
       stroke="#fa62db"
       id="path1885" /><path
       d="m352.69 106.82h-46.079v9.0453"
       clip-path="url(#clipPath3015)"
       stroke="#d89000"
       id="path1887" /><path
       d="m122.29 233.46h-30.719v-27.891"
       clip-path="url(#clipPath3003)"
       stroke="#ff62bc"
       id="path1889" /><path
       d="m91.574 205.57"
       clip-path="url(#clipPath2991)"
       stroke="#000"
       id="path1891" /><path
       d="m337.33 124.91h-15.361"
       clip-path="url(#clipPath2979)"
       stroke="#c8a822"
       id="path1893" /></g><path
     d="m245.17 179.19h-15.361"
     clip-path="url(#clipPath2967)"
     fill="#77dece"
     stroke="#77dece"
     stroke-miterlimit="10"
     stroke-width="1.3333"
     id="path1897" /><g
     fill="none"
     stroke-miterlimit="10"
     stroke-width="1.3333"
     id="g1913"><path
       d="m183.73 156.57h-15.361v-36.181"
       clip-path="url(#clipPath2955)"
       stroke="#9590ff"
       id="path1899" /><path
       d="m199.09 170.14h-15.361v-13.568"
       clip-path="url(#clipPath2943)"
       stroke="#35a2ff"
       id="path1901" /><path
       d="m106.93 177.68h-15.361v27.888"
       clip-path="url(#clipPath2931)"
       stroke="#ff6a98"
       id="path1903" /><path
       d="m214.45 179.19h-15.358v-9.0453"
       clip-path="url(#clipPath2919)"
       stroke="#00bae0"
       id="path1905" /><path
       d="m383.41 88.733h-15.361"
       clip-path="url(#clipPath2907)"
       stroke="#f8766d"
       id="path1907" /><path
       d="m153.01 197.28h-46.079v-19.598"
       clip-path="url(#clipPath2895)"
       stroke="#ef9cf7"
       id="path1909" /><path
       d="m260.53 161.1h-61.44v9.0453"
       clip-path="url(#clipPath2883)"
       stroke="#00bf7d"
       id="path1911" /></g><path
     d="m169.34 120.39c0 0.53307-0.43137 0.96483-0.96395 0.96483-0.53018 0-0.96395-0.43176-0.96395-0.96483s0.43377-0.96483 0.96395-0.96483c0.53258 0 0.96395 0.43176 0.96395 0.96483z"
     clip-path="url(#clipPath2871)"
     id="path1915" /><path
     d="m169.34 120.39c0 0.53307-0.43137 0.96483-0.96395 0.96483-0.53018 0-0.96395-0.43176-0.96395-0.96483s0.43377-0.96483 0.96395-0.96483c0.53258 0 0.96395 0.43176 0.96395 0.96483z"
     clip-path="url(#clipPath2859)"
     fill="none"
     stroke="#000"
     stroke-linecap="square"
     stroke-miterlimit="10"
     stroke-width=".66667"
     id="path1917" /><path
     d="m92.538 205.57c0 0.53307-0.43137 0.96483-0.96395 0.96483-0.53258 0-0.96395-0.43176-0.96395-0.96483 0-0.53066 0.43137-0.96483 0.96395-0.96483 0.53258 0 0.96395 0.43417 0.96395 0.96483z"
     clip-path="url(#clipPath2847)"
     id="path1919" /><path
     d="m92.538 205.57c0 0.53307-0.43137 0.96483-0.96395 0.96483-0.53258 0-0.96395-0.43176-0.96395-0.96483 0-0.53066 0.43137-0.96483 0.96395-0.96483 0.53258 0 0.96395 0.43417 0.96395 0.96483z"
     clip-path="url(#clipPath2835)"
     fill="none"
     stroke="#000"
     stroke-linecap="square"
     stroke-miterlimit="10"
     stroke-width=".66667"
     id="path1921" /><path
     d="m230.78 179.19c0 0.53307-0.43137 0.96483-0.96396 0.96483-0.53258 0-0.96395-0.43176-0.96395-0.96483s0.43137-0.96483 0.96395-0.96483c0.53259 0 0.96396 0.43176 0.96396 0.96483z"
     clip-path="url(#clipPath2823)"
     id="path1923" /><path
     d="m230.78 179.19c0 0.53307-0.43137 0.96483-0.96396 0.96483-0.53258 0-0.96395-0.43176-0.96395-0.96483s0.43137-0.96483 0.96395-0.96483c0.53259 0 0.96396 0.43176 0.96396 0.96483z"
     clip-path="url(#clipPath2811)"
     fill="none"
     stroke="#000"
     stroke-linecap="square"
     stroke-miterlimit="10"
     stroke-width=".66667"
     id="path1925" /><path
     d="m307.58 115.87c0 0.53306-0.43378 0.96483-0.96396 0.96483-0.53258 0-0.96395-0.43177-0.96395-0.96483 0-0.53307 0.43137-0.96483 0.96395-0.96483 0.53018 0 0.96396 0.43176 0.96396 0.96483z"
     clip-path="url(#clipPath2799)"
     id="path1927" /><path
     d="m307.58 115.87c0 0.53306-0.43378 0.96483-0.96396 0.96483-0.53258 0-0.96395-0.43177-0.96395-0.96483 0-0.53307 0.43137-0.96483 0.96395-0.96483 0.53018 0 0.96396 0.43176 0.96396 0.96483z"
     clip-path="url(#clipPath2787)"
     fill="none"
     stroke="#000"
     stroke-linecap="square"
     stroke-miterlimit="10"
     stroke-width=".66667"
     id="path1929" /><path
     d="m276.86 143.01c0 0.53307-0.43137 0.96484-0.96395 0.96484-0.53259 0-0.96396-0.43177-0.96396-0.96484 0-0.53306 0.43137-0.96483 0.96396-0.96483 0.53258 0 0.96395 0.43177 0.96395 0.96483z"
     clip-path="url(#clipPath2775)"
     id="path1931" /><path
     d="m276.86 143.01c0 0.53307-0.43137 0.96484-0.96395 0.96484-0.53259 0-0.96396-0.43177-0.96396-0.96484 0-0.53306 0.43137-0.96483 0.96396-0.96483 0.53258 0 0.96395 0.43177 0.96395 0.96483z"
     clip-path="url(#clipPath2763)"
     fill="none"
     stroke="#000"
     stroke-linecap="square"
     stroke-miterlimit="10"
     stroke-width=".66667"
     id="path1933" /><path
     d="m184.7 156.57c0 0.53307-0.43136 0.96483-0.96395 0.96483-0.53258 0-0.96395-0.43176-0.96395-0.96483s0.43137-0.96483 0.96395-0.96483c0.53259 0 0.96395 0.43176 0.96395 0.96483z"
     clip-path="url(#clipPath2751)"
     id="path1935" /><path
     d="m184.7 156.57c0 0.53307-0.43136 0.96483-0.96395 0.96483-0.53258 0-0.96395-0.43176-0.96395-0.96483s0.43137-0.96483 0.96395-0.96483c0.53259 0 0.96395 0.43176 0.96395 0.96483z"
     clip-path="url(#clipPath2739)"
     fill="none"
     stroke="#000"
     stroke-linecap="square"
     stroke-miterlimit="10"
     stroke-width=".66667"
     id="path1937" /><path
     d="m200.06 170.14c0 0.53307-0.43137 0.96483-0.96395 0.96483-0.53259 0-0.96396-0.43176-0.96396-0.96483 0-0.53306 0.43137-0.96483 0.96396-0.96483 0.53258 0 0.96395 0.43177 0.96395 0.96483z"
     clip-path="url(#clipPath2727)"
     id="path1939" /><path
     d="m200.06 170.14c0 0.53307-0.43137 0.96483-0.96395 0.96483-0.53259 0-0.96396-0.43176-0.96396-0.96483 0-0.53306 0.43137-0.96483 0.96396-0.96483 0.53258 0 0.96395 0.43177 0.96395 0.96483z"
     clip-path="url(#clipPath2715)"
     fill="none"
     stroke="#000"
     stroke-linecap="square"
     stroke-miterlimit="10"
     stroke-width=".66667"
     id="path1941" /><path
     d="m369.01 88.733c0 0.53307-0.43137 0.96483-0.96395 0.96483s-0.96395-0.43176-0.96395-0.96483 0.43137-0.96483 0.96395-0.96483 0.96395 0.43176 0.96395 0.96483z"
     clip-path="url(#clipPath2703)"
     id="path1943" /><path
     d="m369.01 88.733c0 0.53307-0.43137 0.96483-0.96395 0.96483s-0.96395-0.43176-0.96395-0.96483 0.43137-0.96483 0.96395-0.96483 0.96395 0.43176 0.96395 0.96483z"
     clip-path="url(#clipPath2691)"
     fill="none"
     stroke="#000"
     stroke-linecap="square"
     stroke-miterlimit="10"
     stroke-width=".66667"
     id="path1945" /><path
     d="m107.9 177.68c0 0.53307-0.43136 0.96483-0.96395 0.96483-0.53258 0-0.96395-0.43176-0.96395-0.96483s0.43137-0.96483 0.96395-0.96483c0.53259 0 0.96395 0.43176 0.96395 0.96483z"
     clip-path="url(#clipPath2679)"
     id="path1947" /><path
     d="m107.9 177.68c0 0.53307-0.43136 0.96483-0.96395 0.96483-0.53258 0-0.96395-0.43176-0.96395-0.96483s0.43137-0.96483 0.96395-0.96483c0.53259 0 0.96395 0.43176 0.96395 0.96483z"
     clip-path="url(#clipPath2667)"
     fill="none"
     stroke="#000"
     stroke-linecap="square"
     stroke-miterlimit="10"
     stroke-width=".66667"
     id="path1949" /><path
     d="m215.42 179.19c0 0.53307-0.43137 0.96483-0.96395 0.96483-0.53017 0-0.96395-0.43176-0.96395-0.96483s0.43378-0.96483 0.96395-0.96483c0.53258 0 0.96395 0.43176 0.96395 0.96483z"
     clip-path="url(#clipPath2655)"
     id="path1951" /><path
     d="m215.42 179.19c0 0.53307-0.43137 0.96483-0.96395 0.96483-0.53017 0-0.96395-0.43176-0.96395-0.96483s0.43378-0.96483 0.96395-0.96483c0.53258 0 0.96395 0.43176 0.96395 0.96483z"
     clip-path="url(#clipPath2643)"
     fill="none"
     stroke="#000"
     stroke-linecap="square"
     stroke-miterlimit="10"
     stroke-width=".66667"
     id="path1953" /><path
     d="m322.93 124.91c0 0.53307-0.43137 0.96483-0.96395 0.96483-0.53259 0-0.96395-0.43176-0.96395-0.96483s0.43136-0.96483 0.96395-0.96483c0.53258 0 0.96395 0.43176 0.96395 0.96483z"
     clip-path="url(#clipPath2631)"
     id="path1955" /><path
     d="m322.93 124.91c0 0.53307-0.43137 0.96483-0.96395 0.96483-0.53259 0-0.96395-0.43176-0.96395-0.96483s0.43136-0.96483 0.96395-0.96483c0.53258 0 0.96395 0.43176 0.96395 0.96483z"
     clip-path="url(#clipPath2619)"
     fill="none"
     stroke="#000"
     stroke-linecap="square"
     stroke-miterlimit="10"
     stroke-width=".66667"
     id="path1957" /><path
     d="m338.3 124.91c0 0.53307-0.43137 0.96483-0.96395 0.96483s-0.96395-0.43176-0.96395-0.96483 0.43137-0.96483 0.96395-0.96483 0.96395 0.43176 0.96395 0.96483z"
     clip-path="url(#clipPath2607)"
     id="path1959" /><path
     d="m338.3 124.91c0 0.53307-0.43137 0.96483-0.96395 0.96483s-0.96395-0.43176-0.96395-0.96483 0.43137-0.96483 0.96395-0.96483 0.96395 0.43176 0.96395 0.96483z"
     clip-path="url(#clipPath2595)"
     fill="none"
     stroke="#000"
     stroke-linecap="square"
     stroke-miterlimit="10"
     stroke-width=".66667"
     id="path1961" /><path
     d="m246.14 179.19c0 0.53307-0.43137 0.96483-0.96395 0.96483-0.53259 0-0.96395-0.43176-0.96395-0.96483s0.43136-0.96483 0.96395-0.96483c0.53258 0 0.96395 0.43176 0.96395 0.96483z"
     clip-path="url(#clipPath2583)"
     id="path1963" /><path
     d="m246.14 179.19c0 0.53307-0.43137 0.96483-0.96395 0.96483-0.53259 0-0.96395-0.43176-0.96395-0.96483s0.43136-0.96483 0.96395-0.96483c0.53258 0 0.96395 0.43176 0.96395 0.96483z"
     clip-path="url(#clipPath2571)"
     fill="none"
     stroke="#000"
     stroke-linecap="square"
     stroke-miterlimit="10"
     stroke-width=".66667"
     id="path1965" /><path
     d="m292.22 143.01c0 0.53307-0.43137 0.96484-0.96395 0.96484s-0.96395-0.43177-0.96395-0.96484c0-0.53306 0.43137-0.96483 0.96395-0.96483s0.96395 0.43177 0.96395 0.96483z"
     clip-path="url(#clipPath2559)"
     id="path1967" /><path
     d="m292.22 143.01c0 0.53307-0.43137 0.96484-0.96395 0.96484s-0.96395-0.43177-0.96395-0.96484c0-0.53306 0.43137-0.96483 0.96395-0.96483s0.96395 0.43177 0.96395 0.96483z"
     clip-path="url(#clipPath2547)"
     fill="none"
     stroke="#000"
     stroke-linecap="square"
     stroke-miterlimit="10"
     stroke-width=".66667"
     id="path1969" /><path
     d="m153.98 197.28c0 0.53307-0.43137 0.96483-0.96396 0.96483-0.53258 0-0.96395-0.43176-0.96395-0.96483s0.43137-0.96483 0.96395-0.96483c0.53259 0 0.96396 0.43176 0.96396 0.96483z"
     clip-path="url(#clipPath2535)"
     id="path1971" /><path
     d="m153.98 197.28c0 0.53307-0.43137 0.96483-0.96396 0.96483-0.53258 0-0.96395-0.43176-0.96395-0.96483s0.43137-0.96483 0.96395-0.96483c0.53259 0 0.96396 0.43176 0.96396 0.96483z"
     clip-path="url(#clipPath2523)"
     fill="none"
     stroke="#000"
     stroke-linecap="square"
     stroke-miterlimit="10"
     stroke-width=".66667"
     id="path1973" /><path
     d="m384.37 88.733c0 0.53307-0.43136 0.96483-0.96395 0.96483-0.53258 0-0.96395-0.43176-0.96395-0.96483s0.43137-0.96483 0.96395-0.96483c0.53259 0 0.96395 0.43176 0.96395 0.96483z"
     clip-path="url(#clipPath2511)"
     id="path1975" /><path
     d="m384.37 88.733c0 0.53307-0.43136 0.96483-0.96395 0.96483-0.53258 0-0.96395-0.43176-0.96395-0.96483s0.43137-0.96483 0.96395-0.96483c0.53259 0 0.96395 0.43176 0.96395 0.96483z"
     clip-path="url(#clipPath2499)"
     fill="none"
     stroke="#000"
     stroke-linecap="square"
     stroke-miterlimit="10"
     stroke-width=".66667"
     id="path1977" /><path
     d="m138.62 215.37c0 0.53307-0.43137 0.96483-0.96395 0.96483s-0.96395-0.43176-0.96395-0.96483 0.43137-0.96483 0.96395-0.96483 0.96395 0.43176 0.96395 0.96483z"
     clip-path="url(#clipPath2487)"
     id="path1979" /><path
     d="m138.62 215.37c0 0.53307-0.43137 0.96483-0.96395 0.96483s-0.96395-0.43176-0.96395-0.96483 0.43137-0.96483 0.96395-0.96483 0.96395 0.43176 0.96395 0.96483z"
     clip-path="url(#clipPath2475)"
     fill="none"
     stroke="#000"
     stroke-linecap="square"
     stroke-miterlimit="10"
     stroke-width=".66667"
     id="path1981" /><path
     d="m261.5 161.1c0 0.53307-0.43377 0.96483-0.96395 0.96483-0.53258 0-0.96395-0.43176-0.96395-0.96483s0.43137-0.96483 0.96395-0.96483c0.53018 0 0.96395 0.43176 0.96395 0.96483z"
     clip-path="url(#clipPath2463)"
     id="path1983" /><path
     d="m261.5 161.1c0 0.53307-0.43377 0.96483-0.96395 0.96483-0.53258 0-0.96395-0.43176-0.96395-0.96483s0.43137-0.96483 0.96395-0.96483c0.53018 0 0.96395 0.43176 0.96395 0.96483z"
     clip-path="url(#clipPath2451)"
     fill="none"
     stroke="#000"
     stroke-linecap="square"
     stroke-miterlimit="10"
     stroke-width=".66667"
     id="path1985" /><path
     d="m123.26 233.46c0 0.53306-0.43137 0.96483-0.96395 0.96483-0.53259 0-0.96396-0.43177-0.96396-0.96483 0-0.53307 0.43137-0.96483 0.96396-0.96483 0.53258 0 0.96395 0.43176 0.96395 0.96483z"
     clip-path="url(#clipPath2439)"
     id="path1987" /><path
     d="m123.26 233.46c0 0.53306-0.43137 0.96483-0.96395 0.96483-0.53259 0-0.96396-0.43177-0.96396-0.96483 0-0.53307 0.43137-0.96483 0.96396-0.96483 0.53258 0 0.96395 0.43176 0.96395 0.96483z"
     clip-path="url(#clipPath2427)"
     fill="none"
     stroke="#000"
     stroke-linecap="square"
     stroke-miterlimit="10"
     stroke-width=".66667"
     id="path1989" /><path
     d="m353.66 106.82c0 0.53307-0.43137 0.96483-0.96396 0.96483-0.53258 0-0.96395-0.43176-0.96395-0.96483s0.43137-0.96483 0.96395-0.96483c0.53259 0 0.96396 0.43176 0.96396 0.96483z"
     clip-path="url(#clipPath2415)"
     id="path1991" /><path
     d="m353.66 106.82c0 0.53307-0.43137 0.96483-0.96396 0.96483-0.53258 0-0.96395-0.43176-0.96395-0.96483s0.43137-0.96483 0.96395-0.96483c0.53259 0 0.96396 0.43176 0.96396 0.96483z"
     clip-path="url(#clipPath2403)"
     fill="none"
     stroke="#000"
     stroke-linecap="square"
     stroke-miterlimit="10"
     stroke-width=".66667"
     id="path1993" /><text
     transform="scale(0.99952012,1.0004801)"
     x="339.90262"
     y="127.7533"
     xml:space="preserve"
     id="text1997"
     style="font-size:8.67967px;font-family:Helvetica;fill:#000000;stroke-width:1.33333"><tspan
       x="339.90262"
       y="127.7533"
       stroke-width="1.33333"
       id="tspan1995">3</tspan></text><text
     transform="scale(0.99952012,1.0004801)"
     x="247.7002"
     y="182.00136"
     xml:space="preserve"
     id="text2001"
     style="font-size:8.67967px;font-family:Helvetica;fill:#000000;stroke-width:1.33333"><tspan
       x="247.7002"
       y="182.00136"
       stroke-width="1.33333"
       id="tspan1999">9</tspan></text><text
     transform="scale(0.99952012,1.0004801)"
     x="293.80139"
     y="145.83598"
     xml:space="preserve"
     id="text2005"
     style="font-size:8.67967px;font-family:Helvetica;fill:#000000;stroke-width:1.33333"><tspan
       x="293.80139"
       y="145.83598"
       stroke-width="1.33333"
       id="tspan2003">6</tspan></text><text
     transform="scale(0.99952012,1.0004801)"
     x="386.00385"
     y="91.587914"
     xml:space="preserve"
     id="text2009"
     style="font-size:8.67967px;font-family:Helvetica;fill:#000000;stroke-width:1.33333"><tspan
       x="386.00385"
       y="91.587914"
       stroke-width="1.33333"
       id="tspan2007">0</tspan></text><text
     transform="scale(0.99952012,1.0004801)"
     x="155.49777"
     y="200.08406"
     xml:space="preserve"
     id="text2013"
     style="font-size:8.67967px;font-family:Helvetica;fill:#000000;stroke-width:1.33333"><tspan
       x="155.49777 160.32631"
       y="200.08406"
       stroke-width="1.33333"
       id="tspan2011">16</tspan></text><text
     transform="scale(0.99952012,1.0004801)"
     x="263.06805"
     y="163.91869"
     xml:space="preserve"
     id="text2017"
     style="font-size:8.67967px;font-family:Helvetica;fill:#000000;stroke-width:1.33333"><tspan
       x="263.06805"
       y="163.91869"
       stroke-width="1.33333"
       id="tspan2015">8</tspan></text><text
     transform="scale(0.99952012,1.0004801)"
     x="140.1299"
     y="218.16673"
     xml:space="preserve"
     id="text2021"
     style="font-size:8.67967px;font-family:Helvetica;fill:#000000;stroke-width:1.33333"><tspan
       x="140.1299 144.95844"
       y="218.16673"
       stroke-width="1.33333"
       id="tspan2019">17</tspan></text><text
     transform="scale(0.99952012,1.0004801)"
     x="355.27048"
     y="109.6706"
     xml:space="preserve"
     id="text2025"
     style="font-size:8.67967px;font-family:Helvetica;fill:#000000;stroke-width:1.33333"><tspan
       x="355.27048"
       y="109.6706"
       stroke-width="1.33333"
       id="tspan2023">2</tspan></text><text
     transform="scale(0.99952012,1.0004801)"
     x="124.76202"
     y="236.24944"
     xml:space="preserve"
     id="text2029"
     style="font-size:8.67967px;font-family:Helvetica;fill:#000000;stroke-width:1.33333"><tspan
       stroke-width="1.33333"
       id="tspan2027">18</tspan></text><text
     transform="scale(0.99952013,1.0004801)"
     x="141.32082"
     y="236.1024"
     xml:space="preserve"
     id="text2029-1"
     style="font-size:8.67967px;font-family:Helvetica;fill:#000000;stroke-width:1.33333"><tspan
       stroke-width="1.33333"
       id="tspan2027-7">Archaea</tspan></text><path
     d="m 164.70631,192.38937 h 3.33077"
     fill="none"
     stroke="#f8766d"
     stroke-linejoin="round"
     stroke-miterlimit="10"
     stroke-width="1.07"
     id="path1749-8-0"
     style="fill:none;stroke:#000000;stroke-width:0.7;stroke-dasharray:none;stroke-opacity:1" /><path
     d="M 168.24862,192.26267 V 220.2889"
     fill="none"
     stroke="#f8766d"
     stroke-linejoin="round"
     stroke-miterlimit="10"
     stroke-width="1.07"
     id="path1749-8-5-9"
     style="fill:none;stroke:#000000;stroke-width:0.7;stroke-dasharray:none;stroke-opacity:1"
     sodipodi:nodetypes="cc" /><path
     d="m 164.72776,220.14511 h 3.33077"
     fill="none"
     stroke="#f8766d"
     stroke-linejoin="round"
     stroke-miterlimit="10"
     stroke-width="1.07"
     id="path1749-8-3-5"
     style="fill:none;stroke:#000000;stroke-width:0.7;stroke-dasharray:none;stroke-opacity:1" /><text
     transform="scale(0.99952013,1.0004801)"
     x="171.74963"
     y="210.49545"
     xml:space="preserve"
     id="text2029-1-6"
     style="font-size:8.67967px;font-family:Helvetica;fill:#000000;stroke-width:1.33333"><tspan
       stroke-width="1.33333"
       id="tspan2027-7-2">CPR Bacteria</tspan></text><text
     transform="scale(0.99952012,1.0004801)"
     x="170.86324"
     y="123.23262"
     xml:space="preserve"
     id="text2033"
     style="font-size:8.67967px;font-family:Helvetica;fill:#000000;stroke-width:1.33333"><tspan
       x="170.86324 175.69179"
       y="123.23262"
       stroke-width="1.33333"
       id="tspan2031">15</tspan></text><text
     transform="scale(0.99952012,1.0004801)"
     x="94.028671"
     y="208.37076"
     xml:space="preserve"
     id="text2037"
     style="font-size:8.67967px;font-family:Helvetica;fill:#000000;stroke-width:1.33333"><tspan
       x="94.028671 96.920403"
       y="208.37076"
       stroke-width="1.33333"
       id="tspan2035">-1</tspan></text><text
     transform="scale(0.99952012,1.0004801)"
     x="309.16928"
     y="118.71194"
     xml:space="preserve"
     id="text2041"
     style="font-size:8.67967px;font-family:Helvetica;fill:#000000;stroke-width:1.33333"><tspan
       x="309.16928"
       y="118.71194"
       stroke-width="1.33333"
       id="tspan2039">5</tspan></text><text
     transform="scale(0.99952012,1.0004801)"
     x="232.33232"
     y="182.00136"
     xml:space="preserve"
     id="text2045"
     style="font-size:8.67967px;font-family:Helvetica;fill:#000000;stroke-width:1.33333"><tspan
       x="232.33232 237.16087"
       y="182.00136"
       stroke-width="1.33333"
       id="tspan2043">10</tspan></text><text
     transform="scale(0.99952012,1.0004801)"
     x="278.43353"
     y="145.83598"
     xml:space="preserve"
     id="text2049"
     style="font-size:8.67967px;font-family:Helvetica;fill:#000000;stroke-width:1.33333"><tspan
       x="278.43353"
       y="145.83598"
       stroke-width="1.33333"
       id="tspan2047">7</tspan></text><text
     transform="scale(0.99952012,1.0004801)"
     x="186.23111"
     y="159.39801"
     xml:space="preserve"
     id="text2053"
     style="font-size:8.67967px;font-family:Helvetica;fill:#000000;stroke-width:1.33333"><tspan
       x="186.23111 191.05966"
       y="159.39801"
       stroke-width="1.33333"
       id="tspan2051">14</tspan></text><text
     transform="scale(0.99952012,1.0004801)"
     x="201.59898"
     y="172.96001"
     xml:space="preserve"
     id="text2057"
     style="font-size:8.67967px;font-family:Helvetica;fill:#000000;stroke-width:1.33333"><tspan
       x="201.59898 206.42754"
       y="172.96001"
       stroke-width="1.33333"
       id="tspan2055">13</tspan></text><text
     transform="scale(0.99952012,1.0004801)"
     x="370.63596"
     y="91.587914"
     xml:space="preserve"
     id="text2061"
     style="font-size:8.67967px;font-family:Helvetica;fill:#000000;stroke-width:1.33333"><tspan
       x="370.63596"
       y="91.587914"
       stroke-width="1.33333"
       id="tspan2059">1</tspan></text><text
     transform="scale(0.99952012,1.0004801)"
     x="109.39655"
     y="180.49448"
     xml:space="preserve"
     id="text2065"
     style="font-size:8.67967px;font-family:Helvetica;fill:#000000;stroke-width:1.33333"><tspan
       x="109.39655 114.22509"
       y="180.49448"
       stroke-width="1.33333"
       id="tspan2063">19</tspan></text><text
     transform="scale(0.99952012,1.0004801)"
     x="216.96445"
     y="182.00136"
     xml:space="preserve"
     id="text2069"
     style="font-size:8.67967px;font-family:Helvetica;fill:#000000;stroke-width:1.33333"><tspan
       x="216.96445 221.793"
       y="182.00136"
       stroke-width="1.33333"
       id="tspan2067">11</tspan></text><text
     transform="scale(0.99952012,1.0004801)"
     x="324.53473"
     y="127.7533"
     xml:space="preserve"
     id="text2073"
     style="font-size:8.67967px;font-family:Helvetica;fill:#000000;stroke-width:1.33333"><tspan
       x="324.53473"
       y="127.7533"
       stroke-width="1.33333"
       id="tspan2071">4</tspan></text><text
     xml:space="preserve"
     style="font-size:10.6667px;font-family:Helvetica;-inkscape-font-specification:'Helvetica, Normal';fill:none;stroke:#000000;stroke-opacity:1"
     x="142.60561"
     y="236.17398"
     id="text3295"><tspan
       sodipodi:role="line"
       id="tspan3293"></tspan></text><text
     xml:space="preserve"
     style="font-size:10.6667px;font-family:Helvetica;-inkscape-font-specification:'Helvetica, Normal';fill:none;stroke:#000000;stroke-opacity:1"
     x="150.5576"
     y="232.72812"
     id="text3299"><tspan
       sodipodi:role="line"
       id="tspan3297"></tspan></text></svg>
